<?xml version="1.0" encoding="utf-8"?>
<!-- Generator: Adobe Illustrator 28.2.0, SVG Export Plug-In . SVG Version: 6.00 Build 0)  -->
<svg version="1.1" id="Layer_1" xmlns="http://www.w3.org/2000/svg" xmlns:xlink="http://www.w3.org/1999/xlink" x="0px" y="0px"
	 viewBox="0 0 511.9 393.9" style="enable-background:new 0 0 511.9 393.9;" xml:space="preserve">
<g>
	<path d="M361.2,144.1c-4.6-6-8.9-12.1-13.7-17.9c-3.6-4.3-7.4-8.4-12.2-11.4c-2.2-1.4-4.7-2.4-7.2-3.1c-6.2-1.7-15.7,3.6-15.2,12.4
		c0,2.8,0.2,5.7,0.5,8.5c-2.4-1.3-4.3-2.4-6.3-3.3c-2.6-1.2-5.2-2.1-8.1-1.3c-7.9,2-11.5,7.6-10.7,16c0.1,1.4,0.4,2.8,0.4,4.6
		c-1.4-1.5-2.8-3.2-4-4.9c-3.1-4-2.1-3.7-6.2-1.1c-2.7,1.8-5.3,3.6-7.9,5.4c-2.1,1.5-2.1,1.5-0.5,3.6c3.1,4.1,6.2,8.1,9.3,12.2
		c10.4,13.8,20.9,27.5,31.3,41.3c1.7,2.2,3.4,4.5,5.1,6.7c1.1,1.4,1.5,1.5,3,0.5c3.8-2.5,7.6-5,11.4-7.6c1.4-1,1.4-1.2,0.3-2.7
		c-5.5-7.3-11.1-14.6-16.7-22c-3.6-4.8-7.5-9.4-10.6-14.5c-1.6-2.4-2.6-5.2-2.8-8.1c0-2.8,2.1-5.4,5.9-4c2.5,1,4.6,2.7,6.1,4.8
		c5.5,7.2,11.1,14.5,16.6,21.7c3.8,5,7.6,9.9,11.3,14.9c1.4,1.8,1.6,1.9,3.5,0.6c3.5-2.4,7-4.7,10.5-7.1c1.9-1.3,2-1.5,0.5-3.3
		c-6.4-8.4-12.8-16.8-19.1-25.2c-2.9-3.9-6.1-7.6-8.5-11.9c-1-1.7-1.7-3.6-2.1-5.6c-0.2-0.9-0.2-1.8,0-2.6c0.4-2.1,2.4-3.5,4.5-3.2
		c0.3,0.1,0.6,0.1,0.9,0.3c3.4,1.2,5.8,3.6,7.9,6.3c5.4,7.1,10.7,14.1,16.1,21.2c3.5,4.6,7,9.2,10.4,13.8c1.5,2,1.6,2,3.7,0.7
		c3.5-2.3,7.1-4.7,10.6-7.1c1.8-1.2,1.9-1.4,0.5-3.2C373.5,160.4,367.4,152.2,361.2,144.1z"/>
	<path d="M102.5,354.9c-6.1-5.4-12.3-10.7-18.5-16c-5.4-4.7-10.8-9.4-16.3-14.2c-4.3-3.7-8.6-7.4-12.9-11.1
		c-4.2-3.6-8.3-7.2-12.5-10.9c-4.1-3.6-8.2-7.1-12.3-10.6c-3.3-2.8-6.5-5.7-9.7-8.5c-0.9-0.9-1.9-1.6-2.9-2.1l0,0
		c-0.6,0-1.2,0.3-1.7,0.6c-4.9,3.2-9.7,6.5-14.6,9.7c-1.4,1-1.5,1.1-0.7,2.7c3.8,8,7.5,16.1,11.3,24.1c5.3,11.4,10.7,22.9,16,34.3
		c4.1,8.7,8.2,17.4,12.2,26c2.1,4.4,4.1,8.9,6.2,13.3c0.9,2,1,2,2.8,0.8c4.3-2.9,8.7-5.8,13-8.7c1.8-1.2,1.8-1.2,0.7-3.3
		c-2-3.9-4.1-7.8-6.1-11.7c-1.3-2.4-1.2-2.7,1.1-4.2c4.4-2.9,8.8-5.9,13.1-8.8c2.3-1.6,2.4-1.6,4.5,0.1c2.3,1.9,4.3,4.1,6.4,6.1
		c1.3,1.2,2.8,2.4,4.1,3.7c0.6,0.8,1.7,0.9,2.5,0.3c0,0,0,0,0.1-0.1c4.6-3.1,9.3-6.2,13.9-9.4C103.8,356.4,103.7,356,102.5,354.9z
		 M53.8,338.9c-2.5,1.7-5,3.4-7.6,5.1c-1.9,1.2-2.1,1.2-3.2-0.9c-2.2-4.3-4.5-8.6-6.7-13c-1.5-3-3.1-5.9-4.7-8.9c-1.5-3-3-6-4.5-8.9
		l0.4-0.3c1.8,1.4,3.5,2.9,5.2,4.5c3.9,3.7,7.8,7.3,11.7,10.9c3.2,3,6.4,6,9.6,9C55.3,337.6,55.2,337.9,53.8,338.9z"/>
	<path d="M275.2,175.3c-3.5-4.8-7.9-8.9-12.8-12.1c-2.4-1.6-5.2-2.6-8-3c-6.6-0.9-12.8,3.6-13.9,10.2c-0.5,2.8-0.5,5.7-0.1,8.5
		c-0.9-0.3-1.6-1-2-1.8c-6.9-9.1-13.8-18.2-20.7-27.3c-1.6-2.1-1.7-2.1-3.8-0.7c-3.5,2.3-7.1,4.7-10.6,7.1c-1.7,1.2-1.7,1.4-0.5,3
		c10.2,13.4,20.4,26.9,30.5,40.3c11.2,14.8,22.4,29.5,33.7,44.3c1.5,2,1.7,2.1,3.8,0.6c3.3-2.2,6.6-4.5,9.9-6.7
		c2.3-1.6,2.4-1.6,0.7-3.8c-7.3-9.6-14.6-19.2-21.9-28.8c-2-2.5-3.7-5.2-5.3-8c-1.3-2-2-4.4-2.1-6.8c0-4,3.3-6.1,6.9-4.4
		c2.4,1.2,4.4,2.9,6,5.1c4.8,5.9,9.2,12.1,13.8,18.1s9.2,12.1,13.8,18.1c1.3,1.7,1.3,1.7,3,0.6c3.6-2.4,7.2-4.8,10.8-7.2
		c2-1.3,2-1.7,0.6-3.6C296.3,203,285.8,189.1,275.2,175.3z"/>
	<path d="M213,281.2c-6.9-5.2-11.5-12.4-16.6-19.1c-5.8-7.5-11.4-15.2-17.4-22.6c-3.5-4.5-7.8-8.3-12.7-11.2
		c-5.2-2.9-10.5-3.6-16.1-1.1c-5.7,2.6-11,5.8-15.2,10.6c-3.8,4.5-4.5,9.6-3.2,15.1c1,3.7,2.5,7.3,4.5,10.6c0.3,0.8,1.2,1.2,2,0.9
		c0.1,0,0.2-0.1,0.4-0.2c4.1-1.8,8.2-3.6,12.3-5.4c1.7-0.8,1.7-1,1.1-2.8c-0.3-0.8-0.6-1.6-0.9-2.5c-1-4,1.4-8.1,5.4-9.1
		c0.5-0.1,0.9-0.2,1.4-0.2c1-0.1,1.9,0.2,2.7,0.8c1.6,1.2,3,2.6,4.3,4.2c0.8,0.9,0.4,1.8,0,2.7c-1.4,3.2-3.1,6.3-5.2,9.1
		c-1.4,2-2.7,3.9-4.2,5.8c-5,6.3-5.8,13-2.3,20.2c3.2,6.4,7.5,11.9,13.6,15.8c3.1,1.9,6.3,3.4,10.1,3.3c7.6-0.2,14.1-5.5,15.9-12.9
		c0.4-1.9,0.6-3.8,0.5-5.7c0-0.6-0.2-1.3,0.5-1.9c1.4,1.1,2.5,2.6,4,3.6c0.5,0.4,1,0.8,1.5,1.2c0.7,0.6,1.7,0.6,2.4,0.1
		c3.6-2.5,7.3-4.9,11-7.4C214,282.3,214,281.9,213,281.2z M183.8,279c0.1,1.4-0.2,2.8-0.8,4.1c-1.2,2.6-3.9,5.1-7.8,3.3
		c-5-2.3-7.4-8.1-5.4-13.2c1.2-3.2,3.5-5.9,4.8-9.1c0.4-1,1-0.8,1.6-0.1c2.4,3.2,4.9,6.3,6.4,10C183.3,275.6,183.7,277.2,183.8,279
		L183.8,279z"/>
	<path d="M472,96.6c-6.9-9.1-13.8-18.2-20.7-27.3c-4.3-5.7-8.7-11.5-14.1-16.3c-3.2-3.1-7.1-5.3-11.3-6.5
		c-6.9-1.8-13.9,2.3-15.7,9.2c-0.2,0.9-0.4,1.9-0.4,2.8c0,2.6,0.2,5.3,0.6,7.9c0.2,0.5,0.1,1-0.3,1.4c-1.9-2.5-3.7-4.8-5.5-7.2
		c-1.4-1.8-1.6-1.8-3.5-0.6c-3.3,2.2-6.5,4.4-9.7,6.6c-1.7,1.2-1.7,1.3-0.4,3c3.6,4.8,7.2,9.5,10.9,14.3
		c10.8,14.3,21.6,28.5,32.5,42.8c0.9,1.2,1.9,2.4,2.8,3.6c1.2,1.5,1.2,1.5,2.7,0.5c3.7-2.5,7.5-5,11.2-7.5c1.6-1.1,1.7-1.4,0.5-3.1
		c-3.2-4.2-6.4-8.4-9.5-12.6c-5.3-7.1-10.9-14-16-21.3c-1.2-1.9-2.3-3.8-3.2-5.9c-0.8-1.6-1.1-3.4-0.9-5.1c0.1-2.4,2.2-4.3,4.6-4.1
		c0.3,0,0.7,0.1,1,0.2c1.3,0.3,2.6,1,3.6,1.9c2,1.8,3.8,3.7,5.4,5.7c8.3,11,16.7,22,25.1,33.1c0.3,0.4,0.6,0.8,0.9,1.1
		c1.3,1.5,1.6,1.5,3.2,0.4c3.5-2.4,7-4.7,10.5-7.1c0.1-0.1,0.3-0.2,0.4-0.3c1.5-1.1,1.6-1.3,0.5-2.9
		C475.4,101.1,473.7,98.9,472,96.6z"/>
	<path d="M419.4,124.2c-0.2-0.8-0.4-1.5-0.7-2.3c-0.5-1.3-0.8-1.5-2.2-0.9c-1.1,0.5-2.2,1-3.3,1.5c-3,1.4-6.1,2.8-9.1,4.2
		c-1.8,0.9-1.8,0.9-1.6,3c0.1,1.2,0.2,2.4,0.1,3.6c-0.2,3.2-2.9,5.6-6.1,5.5c-1.2,0-2.4-0.2-3.5-0.7c-3.5-1.6-6.6-4-8.9-7.1
		c-0.7-0.8-0.6-1.4,0.3-1.9c0.4-0.3,0.8-0.5,1.2-0.8l23.9-16.1c0.2-0.1,0.4-0.3,0.6-0.4c1.8-1.3,1.9-1.4,0.6-3.2
		c-1.7-2.2-3.4-4.4-5.2-6.6c-3.9-4.9-8.5-9.4-13.5-13.2c-3.6-2.7-7.5-4.9-11.8-6.4c-6.1-2.1-12.7-1.3-18.2,2
		c-2.9,1.5-5.5,3.6-7.6,6.2c-2.5,3.3-3.8,7.5-3.5,11.7l0,0c-0.1,8.1,2.5,15,6.1,21.5c4.5,8.1,10.3,15.5,17.2,21.7
		c5.3,4.8,11.2,8.7,18.2,10.8c4.6,1.4,9.5,1,13.8-1.1c4.8-2.1,9-5.4,12-9.6c2.3-3.4,3.3-7.5,2.9-11.6
		C420.9,130.6,420.3,127.3,419.4,124.2z M373.1,116.6c-1.6-2.4-2.8-5-3.8-7.7c-0.3-1.1-0.5-2.2-0.7-3.3l0,0c0-3.9,2.4-6.5,5.8-6.5
		c1.4,0,2.7,0.3,3.9,1c3.3,1.7,6.2,4.2,8.5,7.2c0.9,1.2,0.9,1.5-0.3,2.3c-3.8,2.6-7.6,5.1-11.3,7.6
		C374.3,117.8,373.6,117.6,373.1,116.6z"/>
	<path d="M247.2,229.1c-0.8-1.8-1.2-1.9-3-1.2c-4.1,1.7-8.1,3.3-12.2,5.1c-1.6,0.7-1.7,0.9-0.9,2.5c0.8,1.8,1.4,3.7,1.9,5.7
		c0.7,2.7-0.2,5.6-2.4,7.3c-2.1,1.8-4.6,1.7-7,0.8c-4.2-1.5-7.4-4.4-10.3-7.7c-3.5-3.9-6.4-8.2-8.8-12.8c-1-2.1-1.8-4.3-2.1-6.6
		c-0.4-2.7,0.2-5.1,2.5-6.8c2.1-1.7,5.1-1.9,7.5-0.7c1.6,0.7,3.1,1.7,4.4,2.9c0.9,0.8,1.7,1,2.7,0c2.9-3.3,6-6.4,8.9-9.7
		c1.1-1.3,1.1-1.5-0.1-2.6c-4.8-4.1-9.8-8-16-9.9c-5.1-1.8-10.7-1.6-15.7,0.7c-5.3,2.5-10,5.7-12.6,11.2c-1.2,2.8-1.7,5.9-1.5,8.9
		l0,0c-0.1,7.6,2.5,14.4,6.2,20.9c4.1,7,9,13.5,14.5,19.3c4.8,5.1,10.8,9.2,17.3,11.8c8.9,3.6,16.9,1.4,24.4-3.9
		c4.3-2.9,7.2-7.6,7.7-12.7c0.5-4.6,0-9.3-1.6-13.7C249.8,234.8,248.6,231.9,247.2,229.1z"/>
	<path d="M511.2,80c-3.8-4.4-7.6-8.9-11.4-13.3c-1.2-1.4-1.4-1.3-2.5,0.2c-2.7,4-4.9,4.2-8.1,0.6c-2.9-3.2-5.3-6.8-7.9-10.2
		c-3.4-4.5-6.9-9-10.3-13.6c-1.5-2-1.5-2.3,0.6-3.8c1.4-1,2.8-1.9,4.2-2.8c1-0.7,1.1-1.4,0.4-2.4c-3.8-5-7.6-10.1-11.5-15.1
		c-0.9-1.2-1.3-1.2-2.7-0.4c-1.5,0.9-2.9,2-4.4,2.9c-2,1.3-2,1.3-3.4-0.6c-4.5-5.9-9-11.9-13.5-17.8c-0.9-1.4-2-2.8-3.2-4
		c-0.7,0.3-0.7,0.8-0.8,1.3c-1.3,6-2.6,12-4,18c-0.5,1.6-0.1,3.4,1.1,4.6c1.8,2.2,3.5,4.6,5.3,6.8c2,2.7,2,2.7-0.9,4.6
		c-0.5,0.3-0.9,0.6-1.4,1c-0.5,0.3-0.7,0.9-0.5,1.4c0,0.1,0.1,0.2,0.2,0.3c0.2,0.3,0.5,0.7,0.7,1c3.6,4.7,7.1,9.4,10.7,14.1
		c1.3,1.8,1.7,1.8,3.5,0.6c0.1-0.1,0.3-0.2,0.4-0.3c3.2-2.1,2.6-2.3,4.9,0.8c6.1,8,12.1,16.1,18.3,24c3.3,4.4,7.2,8.4,11.5,11.8
		c2.6,2.1,5.9,3.3,9.3,3.2c2.3-0.1,4.6-0.9,6.5-2.1c3.4-2.1,6.4-4.8,8.8-8.1C512.2,81.7,512.2,81.3,511.2,80z"/>
	<path d="M121.4,321.3c-0.3-0.4-0.6-0.7-1-1c-0.3-0.4-0.8-0.4-1.2-0.1c-0.1,0.1-0.2,0.2-0.2,0.3c-0.5,0.8-1,1.6-1.6,2.4
		c-1.6,1.9-3.3,2-5.1,0.3c-1.5-1.4-2.8-2.8-4-4.4c-5.3-7-10.6-14-16-21c-1.4-1.8-1.4-2,0.6-3.3c1.4-0.9,2.8-1.8,4.2-2.8
		c1.5-1.1,1.6-1.4,0.5-2.9c-2.1-2.8-4.3-5.6-6.4-8.4c-1.6-2.1-3.2-4.2-4.8-6.3c-1.1-1.5-1.3-1.5-2.9-0.5c-1.4,0.9-2.8,1.9-4.2,2.8
		c-1.9,1.2-2.2,1.1-3.5-0.6c-4-5.3-8-10.6-12-15.9c-1.2-1.6-2.4-3.2-3.7-4.8c-0.3-0.4-0.6-0.9-1.1-0.7c-0.5,0.1-0.6,0.7-0.7,1.2
		c-0.7,3.1-1.4,6.2-2.1,9.4c-0.6,2.8-1.2,5.6-1.9,8.4c-0.1,0.5-0.2,1.1-0.3,1.3l0,0c0,1.2,0.4,2.3,1.2,3.1c2.1,2.8,4.1,5.5,6.2,8.2
		c1,1.3,1,1.5-0.3,2.5c-0.6,0.4-1.2,0.8-1.8,1.2c-2,1.4-2,1.4-0.6,3.3c2.5,3.3,5,6.6,7.5,9.9c1.2,1.6,2.4,3.2,3.6,4.8
		c0.4,0.7,1.3,1.1,2,0.7c0.2-0.1,0.3-0.2,0.4-0.3c0.6-0.4,1.2-0.8,1.8-1.2c2.1-1.4,2.1-1.4,3.6,0.6c2.9,3.8,5.8,7.6,8.7,11.4
		c4.7,6.1,9.3,12.4,14.3,18.3c3,3.7,6.8,6.8,11.1,9c3.1,1.5,6.6,1.5,9.7,0c4.4-2,8.1-5.2,10.9-9.1c1.1-1.5,1-1.7-0.1-3.1
		C128.6,329.8,125,325.5,121.4,321.3z"/>
	<path d="M153.2,299.1c-1-1.1-1.3-1-2.1,0.2c-0.4,0.7-0.9,1.3-1.4,1.9c-1.8,1.8-3.3,2-5.2,0.3c-1.3-1.1-2.4-2.3-3.5-3.6
		c-5.6-7.3-11.1-14.6-16.7-21.9c-1.2-1.6-1.2-1.8,0.5-3c1.4-1,2.9-1.9,4.4-2.9c1.5-1.1,1.6-1.4,0.5-2.9c-1.2-1.6-2.4-3.2-3.6-4.8
		c-2.5-3.3-5-6.6-7.6-9.9c-1.2-1.5-1.3-1.5-2.9-0.5c-1.4,0.9-2.7,1.9-4.1,2.9c-1.7,1.2-2,1.1-3.3-0.6c-4.3-5.7-8.6-11.3-12.9-17
		c-1.1-1.4-2.2-2.8-3.3-4.1c-0.5-0.6-1-0.5-1.2,0.2c-0.1,0.4-0.3,0.8-0.3,1.1c-1.3,5.7-2.5,11.4-3.8,17.1c-0.1,0.6-0.2,1.3-0.3,1.7
		l0,0c-0.1,1,0.3,1.9,0.9,2.6c2.1,2.7,4.2,5.4,6.2,8.2c1.3,1.7,1.2,2-0.5,3.2c-0.4,0.3-0.8,0.5-1.2,0.8c-2.1,1.4-2.1,1.6-0.7,3.5
		c3.6,4.7,7.1,9.4,10.7,14.1c1.3,1.8,1.4,1.8,3.3,0.6c3.6-2.3,3.1-3,5.9,0.9c5.4,7.6,11.1,14.9,16.7,22.2c3.5,4.5,7.1,9.1,11.7,12.6
		c1.2,0.8,2.4,1.6,3.7,2.3c3.8,2.2,8.4,2.1,12.1-0.1c3.6-2.1,6.8-4.8,9.3-8.2c1.3-1.6,1.3-2.1-0.1-3.8
		C160.7,307.8,156.9,303.4,153.2,299.1z"/>
</g>
</svg>
