<?xml version="1.0" encoding="utf-8"?>
<!-- Generator: Adobe Illustrator 28.2.0, SVG Export Plug-In . SVG Version: 6.00 Build 0)  -->
<!DOCTYPE svg PUBLIC "-//W3C//DTD SVG 1.0//EN" "http://www.w3.org/TR/2001/REC-SVG-20010904/DTD/svg10.dtd" [
	<!ENTITY st0 "fill:#0028B9;">
	<!ENTITY st1 "fill:#00197A;">
	<!ENTITY st2 "fill:#3F58DC;">
	<!ENTITY st3 "fill:#258E34;">
]>
<svg version="1.0" id="Layer_1" xmlns="http://www.w3.org/2000/svg" xmlns:xlink="http://www.w3.org/1999/xlink" x="0px" y="0px"
	 viewBox="0 0 138 96.2" style="enable-background:new 0 0 138 96.2;" xml:space="preserve">
<g id="Group_89" transform="translate(-41 -36.217)">
	<g id="Group_87" transform="translate(-270 8.801)">
		<g id="Group_78" transform="translate(228.358 -21.185)">
			<path id="Path_172" style="&st0;" d="M114.2,66.4c1,0,2.1,0,3.1-0.1c4.4-0.2,7.8-3,8.6-6.9c0.3-1.6,0.2-1.8-1.4-1.8
				c-5.5,0-11,0-16.4,0v0c-5.5,0-11-0.1-16.5,0c-4.2-0.1-7.9,2.9-8.7,7c-0.4,1.6-0.3,1.8,1.4,1.8c0.6,0,1.2,0,1.9,0h12.6v6
				c0,8.5,0,17,0,25.4c0,1.9,0.3,3.8,1,5.7c1.2,3.6,4.3,6.2,8,6.8c1.7,0.3,2.1,0.1,2.1-1.7c0-5.9,0-11.8,0-17.7c0-5.4,0-10.8,0-16.1
				v-8.3L114.2,66.4z"/>
			<path id="Path_173" style="&st0;" d="M219.4,65.7c-0.6-2-1.8-3.8-3.5-5.2c-3.3-2.9-7.3-3.6-11.6-3.4l-23.7,0
				c-1.3,0-1.4,0.4-1.4,2.1c0,13.1,0,26.2,0,39.3c0,2.1,0.5,4.2,1.4,6.1c1.4,3.2,4.4,5.4,7.8,5.8c1.7,0.2,1.9,0,1.9-1.7
				c0-5.2,0-10.5,0-15.7c0-1.5,0.1-1.6,1.7-1.7c4.2,0,8.5,0,12.7,0c2.1,0,4.3-0.4,6.3-1.1c4.2-1.4,7.5-4.8,8.6-9.1
				C221.1,76.1,221,70.7,219.4,65.7 M201.6,82.3c-3,0-6,0-9,0h-2l0-3.5c0-1.5,0-3,0-4.5c0-1.9,0-3.8,0-5.7v-2.2l4.1,0
				c2.7,0,5.3,0,8,0c3.8,0.1,6.5,2.9,6.9,7.2C210,78.8,206.9,82.3,201.6,82.3"/>
			<path id="Path_174" style="&st1;" d="M174.4,75.8c-0.8-5.1-3.1-9.9-6.5-13.8c-0.4-0.4-0.7-1.2-1.5-0.9c-0.6,0.2-0.5,1-0.5,1.6
				c0,1.3-0.9,2.5-2.3,2.7c-0.3,0.1-0.7,0.2-1,0.3c-2.5,0.8-3,2.2-1.8,4.6c4,7.7,4.3,15.5,0.5,23.3c-2.4,5-6.7,7.4-12.2,7.3
				c-5.4-0.1-9.6-2.5-12-7.4c-3.2-6.7-3.3-13.6-0.8-20.5c0.1-0.3,0.2-0.6,0.4-0.9c0.5-0.3,1-0.6,1.5-1c1.6-1.5,1.8-2.6,2.3-4.2v0
				c0.9-3.2,3.9-5.4,7.3-5.2c2.2,0,4.2-1.1,5.5-2.8c0.6-0.8,1-1.7,1.2-2.6v0c0-0.1,0-0.2,0-0.2v0c0-0.1,0-0.1,0-0.2v0
				c0-0.1,0-0.1,0-0.2v0c-0.1-0.5-0.4-0.7-1.1-0.8c-3.1-0.5-6.3-0.4-9.5,0.1c-8,1.4-14.1,5.5-17.4,13.1c-3.2,6.8-4,14.5-2.4,21.9
				c1,4.6,2.5,8.9,5.6,12.6c5,6,11.7,8.1,19.3,8.3c1.8,0.1,3.6-0.1,5.3-0.5c7.8-1.6,13.9-5.5,17.4-12.9
				C174.9,90.4,175.8,83,174.4,75.8"/>
			<path id="Path_175" style="&st2;" d="M154.5,56.2c-0.7,3.2-3.4,5.4-6.7,5.5c-3.3-0.2-6.4,2-7.3,5.2c-0.6,1.6-0.7,2.7-2.3,4.2
				c-0.6,0.5-1.3,1-2.1,1.3c-1.6,0.7-5.3,2.8-6.2,7.3c0,0-0.5,1.3,0,5.2c0.3,1.9-0.3,3.8-1.6,5.2l0,0c-3.2-9.4-0.3-17.2,3-20.7
				c2.5-2.7,3.5-2.6,5.2-2.9c1.3-0.3,2.5-1,3.4-2c0.4-0.7,0.8-1.4,1-2.2c0.2-0.7,0.4-1.4,0.7-2c1.4-2.6,4.3-4,7.2-3.7
				c4.1,0.4,5.7-1.2,5.7-1.2C154.6,55.5,154.6,55.9,154.5,56.2"/>
			<path id="Path_176" style="&st2;" d="M174.9,85.7L174.9,85.7c-1.7,5-7.7,17.4-23.2,18.4c0.7-0.1,9.4-1.3,14.2-7.9
				c5-6.9,3.6-12.1,3.6-12.1s-0.2-1.6-2.9-2.8c-2-0.8-3-3-2.2-5c0.1-0.3,0.3-0.6,0.5-0.9c1.4-1.5,2-1.7,4.2-1.9c0,0,1.6-0.3,1-1.4
				c-0.2-0.3-0.4-0.5-0.7-0.7c-1.7-0.9-2.8-2.8-2.7-4.7c0.1-1.5,0.8-2.9,2-3.7c2.9,3.7,4.9,8.1,5.7,12.8
				C175,79.1,175.2,82.4,174.9,85.7"/>
			<path id="Path_177" style="&st0;" d="M174.9,85.7c-0.4,3.9-1.4,7.8-3.2,11.4c-3.5,7.4-9.6,11.3-17.4,12.9
				c-1.7,0.4-3.5,0.6-5.3,0.5c-7.5-0.2-14.2-2.3-19.3-8.3c-3.1-3.6-4.6-8-5.6-12.6c-1.6-7.4-0.8-15,2.4-21.9
				c3.3-7.6,9.4-11.6,17.4-13.1c3.1-0.5,6.3-0.5,9.5-0.1c0.6,0.1,0.9,0.3,1.1,0.6c0,0-1.6,1.6-5.7,1.2c-2.9-0.3-5.8,1.1-7.2,3.7
				c-0.3,0.6-0.5,1.3-0.7,2c-0.2,0.8-0.5,1.5-1,2.2c-0.9,1-2.1,1.8-3.4,2c-1.8,0.3-2.7,0.2-5.2,2.9c-3.3,3.5-6.2,11.3-3,20.7
				c0,0,4.3,14.2,21.3,14.2C166.8,104.2,173.2,90.9,174.9,85.7"/>
			<path id="Path_178" style="&st3;" d="M158.1,62.6c0.7-1.8,2.2-2.2,3.9-2.6c5.3-1,7.8-6.1,8.8-10.3c0.2-0.7-0.2-1.1-0.9-1.1
				c-3.4,0.2-6.7,1-9.3,3.3c-1.7,1.5-2.6,3.9-2.2,6.1c2.4-2.8,4.8-5.3,8.5-6.4C162.8,54.4,159.4,57.6,158.1,62.6"/>
		</g>
		<g id="Group_77" transform="translate(265.505 -42.52)">
			<path id="Path_179" style="&st0;" d="M46.3,141.6H49c1.3-0.2,2.4,0.8,2.6,2c0,0.1,0,0.2,0,0.3v0c0,1.6-1.2,2.4-2.7,2.4h-1.1v2
				h-1.5V141.6z M48.9,145c0.6,0.1,1.1-0.3,1.2-0.9c0,0,0-0.1,0-0.1v0c0-0.7-0.5-1-1.2-1h-1.1v2.1L48.9,145z"/>
			<path id="Path_180" style="&st0;" d="M52.6,145.5v-3.9h1.5v3.8c0,1.1,0.6,1.7,1.5,1.7s1.5-0.6,1.5-1.6v-3.9h1.5v3.8
				c0.2,1.5-0.9,2.9-2.4,3c-0.2,0-0.4,0-0.6,0c-1.5,0.1-2.8-0.9-2.9-2.4C52.6,145.9,52.6,145.7,52.6,145.5"/>
			<path id="Path_181" style="&st0;" d="M60,141.6h3.1c0.7,0,1.4,0.2,2,0.7c0.4,0.4,0.6,1,0.6,1.5v0c0,0.9-0.5,1.8-1.4,2.1l1.7,2.4
				h-1.7l-1.4-2.2h-1.2v2.2H60V141.6z M63,144.9c0.7,0,1.1-0.4,1.1-1v0c0-0.6-0.4-1-1.2-1h-1.5v1.9L63,144.9z"/>
			<rect id="Rectangle_331" x="67.1" y="141.6" style="&st0;" width="1.5" height="6.8"/>
			<path id="Path_182" style="&st0;" d="M70.2,141.6h5.1v1.4h-3.7v1.4H75v1.4h-3.2v2.6h-1.5L70.2,141.6z"/>
			<rect id="Rectangle_332" x="76.7" y="141.6" style="&st0;" width="1.5" height="6.8"/>
			<path id="Path_183" style="&st0;" d="M79.8,141.6h5.1v1.3h-3.6v1.4h3.2v1.3h-3.2v1.4H85v1.3h-5.1L79.8,141.6z"/>
			<path id="Path_184" style="&st0;" d="M86.3,141.6h2.6c1.9-0.1,3.5,1.3,3.6,3.1c0,0.1,0,0.1,0,0.2v0c0,1.9-1.5,3.4-3.4,3.4
				c-0.1,0-0.1,0-0.2,0h-2.6V141.6z M88.9,147c1.1,0.1,2-0.7,2-1.8c0-0.1,0-0.1,0-0.2v0c0.1-1.1-0.8-2-1.8-2c-0.1,0-0.1,0-0.2,0
				h-1.1v4.1L88.9,147z"/>
			<path id="Path_185" style="&st0;" d="M96.8,141.6h1.4l3.2,4.2v-4.2h1.5v6.8h-1.3l-3.3-4.3v4.3h-1.5L96.8,141.6z"/>
			<path id="Path_186" style="&st0;" d="M106.7,141.6h1.4l2.9,6.8h-1.6l-0.6-1.5h-2.9l-0.6,1.5h-1.5L106.7,141.6z M108.3,145.5
				l-0.9-2.2l-0.9,2.2H108.3z"/>
			<path id="Path_187" style="&st0;" d="M112.7,143h-2.1v-1.4h5.6v1.4h-2.1v5.4h-1.5L112.7,143z"/>
			<path id="Path_188" style="&st0;" d="M117.3,145.5v-3.9h1.5v3.8c0,1.1,0.6,1.7,1.5,1.7s1.5-0.6,1.5-1.6v-3.9h1.5v3.8
				c0.2,1.5-0.9,2.9-2.4,3c-0.2,0-0.4,0-0.6,0c-1.5,0.1-2.8-0.9-2.9-2.4C117.3,145.9,117.3,145.7,117.3,145.5"/>
			<path id="Path_189" style="&st0;" d="M124.7,141.6h3.1c0.7,0,1.4,0.2,2,0.7c0.4,0.4,0.6,1,0.6,1.5v0c0,0.9-0.5,1.8-1.4,2.1
				l1.7,2.4h-1.7l-1.4-2.2h-1.2v2.2h-1.5L124.7,141.6z M127.7,144.9c0.7,0,1.1-0.4,1.1-1v0c0-0.6-0.4-1-1.2-1h-1.5v1.9L127.7,144.9z
				"/>
			<path id="Path_190" style="&st0;" d="M134,141.6h1.4l2.9,6.8h-1.6l-0.6-1.5h-2.9l-0.6,1.5h-1.5L134,141.6z M135.6,145.5l-0.9-2.2
				l-0.9,2.2H135.6z"/>
			<path id="Path_191" style="&st0;" d="M139.3,141.6h1.5v5.4h3.4v1.4h-4.9V141.6z"/>
			<path id="Path_192" style="&st0;" d="M147.7,141.6h1.6l1.4,4.6l1.5-4.6h1.3l1.5,4.6l1.4-4.6h1.6l-2.3,6.8h-1.3l-1.5-4.4l-1.5,4.4
				H150L147.7,141.6z"/>
			<path id="Path_193" style="&st0;" d="M160.5,141.6h1.4l2.9,6.8h-1.6l-0.6-1.5h-2.9l-0.6,1.5h-1.5L160.5,141.6z M162.1,145.5
				l-0.9-2.2l-0.9,2.2H162.1z"/>
			<path id="Path_194" style="&st0;" d="M166.5,143h-2.1v-1.4h5.6v1.4H168v5.4h-1.5L166.5,143z"/>
			<path id="Path_195" style="&st0;" d="M171.2,141.6h5.1v1.3h-3.6v1.4h3.2v1.3h-3.2v1.4h3.7v1.3h-5.1L171.2,141.6z"/>
			<path id="Path_196" style="&st0;" d="M177.7,141.6h3.1c0.7,0,1.4,0.2,2,0.7c0.4,0.4,0.6,1,0.6,1.5v0c0,0.9-0.5,1.8-1.4,2.1
				l1.7,2.4h-1.7l-1.4-2.2h-1.2v2.2h-1.5V141.6z M180.7,144.9c0.7,0,1.1-0.4,1.1-1v0c0-0.6-0.4-1-1.2-1h-1.5v1.9L180.7,144.9z"/>
			<path id="Path_197" style="&st0;" d="M46.3,154.8h5.2c1.1-0.1,2.1,0.3,2.9,1c0.5,0.5,0.8,1.2,0.8,1.9v0c0,1-0.5,2-1.5,2.4
				c1.3,0.3,2.1,1.4,2.1,2.7v0c0,2-1.7,3.1-4.2,3.1h-5.3V154.8z M50.9,159.3c1.1,0,1.8-0.3,1.8-1.2v0c0-0.7-0.6-1.1-1.6-1.1h-2.4
				v2.4L50.9,159.3z M51.6,163.8c1.1,0,1.7-0.4,1.7-1.2v0c0-0.7-0.6-1.2-1.8-1.2h-2.8v2.5H51.6z"/>
			<path id="Path_198" style="&st0;" d="M57.9,154.8h8.4v2.2h-6v2.3h5.3v2.2h-5.3v2.3h6.1v2.2h-8.5V154.8z"/>
			<path id="Path_199" style="&st0;" d="M71.8,161.5l-4.3-6.8h2.9l2.7,4.5l2.7-4.5h2.8l-4.3,6.7v4.4h-2.5L71.8,161.5z"/>
			<path id="Path_200" style="&st0;" d="M78.8,160.4L78.8,160.4c0.1-3.3,2.8-5.9,6.1-5.8c3.1,0.1,5.6,2.6,5.8,5.7v0
				c-0.1,3.3-2.8,5.8-6.1,5.8C81.4,166,78.9,163.5,78.8,160.4 M88.1,160.4L88.1,160.4c0.1-1.9-1.4-3.5-3.3-3.5c0,0-0.1,0-0.1,0
				c-1.8,0-3.3,1.5-3.3,3.3c0,0.1,0,0.1,0,0.2v0c-0.1,1.9,1.4,3.4,3.3,3.5c0,0,0.1,0,0.1,0c1.8,0,3.3-1.5,3.3-3.3
				C88.1,160.5,88.1,160.4,88.1,160.4"/>
			<path id="Path_201" style="&st0;" d="M92.9,154.8h2.3l5.2,6.9v-6.9h2.4v11.2h-2.1l-5.4-7.1v7.1h-2.4V154.8z"/>
			<path id="Path_202" style="&st0;" d="M105.6,154.8h4.3c3.5,0,5.9,2.4,5.9,5.5v0c0,3.1-2.5,5.6-5.6,5.6c-0.1,0-0.2,0-0.3,0h-4.3
				V154.8z M110,163.7c1.8,0.1,3.3-1.2,3.4-3c0-0.1,0-0.2,0-0.3v0c0.1-1.8-1.3-3.3-3-3.4c-0.1,0-0.2,0-0.3,0h-1.9v6.7H110z"/>
			<path id="Path_203" style="&st0;" d="M123.1,154.8h4.6c2.7,0,4.3,1.6,4.3,3.9v0c0,2.6-2,3.9-4.5,3.9h-1.9v3.3h-2.5V154.8z
				 M127.5,160.4c0.9,0.1,1.8-0.5,1.9-1.5c0-0.1,0-0.1,0-0.2v0c0-1.1-0.8-1.7-2-1.7h-1.9v3.4L127.5,160.4z"/>
			<path id="Path_204" style="&st0;" d="M133.7,161.1v-6.4h2.5v6.3c0,1.8,0.9,2.8,2.4,2.8s2.4-0.9,2.4-2.7v-6.4h2.5v6.3
				c0,3.4-1.9,5-4.9,5S133.7,164.4,133.7,161.1"/>
			<path id="Path_205" style="&st0;" d="M146.1,154.8h5.1c1.2-0.1,2.4,0.3,3.2,1.1c0.6,0.7,1,1.6,1,2.5v0c0.1,1.6-0.9,3-2.4,3.5
				l2.7,4h-2.9l-2.4-3.6h-1.9v3.6h-2.5V154.8z M151,160.2c1.2,0,1.9-0.6,1.9-1.6v0c0-1.1-0.7-1.6-1.9-1.6h-2.4v3.2L151,160.2z"/>
			<rect id="Rectangle_333" x="157.8" y="154.8" style="&st0;" width="2.5" height="11.2"/>
			<path id="Path_206" style="&st0;" d="M165.8,157h-3.4v-2.3h9.2v2.3h-3.4v8.9h-2.5V157z"/>
			<path id="Path_207" style="&st0;" d="M176.8,161.5l-4.3-6.8h2.9l2.7,4.5l2.7-4.5h2.8l-4.3,6.7v4.4h-2.5L176.8,161.5z"/>
		</g>
	</g>
</g>
</svg>
