<?xml version="1.0" encoding="utf-8"?>
<!-- Generator: Adobe Illustrator 25.2.1, SVG Export Plug-In . SVG Version: 6.00 Build 0)  -->
<!DOCTYPE svg PUBLIC "-//W3C//DTD SVG 1.0//EN" "http://www.w3.org/TR/2001/REC-SVG-20010904/DTD/svg10.dtd" [
	<!ENTITY st0 "fill:#0B71B3;">
]>
<svg version="1.0" id="Layer_1" xmlns="http://www.w3.org/2000/svg" xmlns:xlink="http://www.w3.org/1999/xlink" x="0px" y="0px"
	 viewBox="0 0 102 46.6" style="enable-background:new 0 0 102 46.6;" xml:space="preserve">
<g id="Group_7" transform="translate(-77.485 -320.259)">
	<g id="Group_6" transform="translate(77.485 320.259)">
		<path id="Path_3" style="&st0;" d="M48.2,46.6c1.3,0,2.7-0.1,4-0.4c5.8-1.2,10.4-4.1,13-9.7c2.4-4.9,3.1-10.5,2-15.9
			c-0.6-3.8-2.3-7.4-4.8-10.3C62,10,61.7,9.5,61.2,9.7c-0.5,0.2-0.4,0.8-0.4,1.2c0,1-0.7,1.9-1.7,2c-0.3,0.1-0.5,0.1-0.8,0.2
			c-1.9,0.6-2.3,1.7-1.4,3.4c3,5.4,3.2,11.9,0.4,17.4c-1.8,3.7-5,5.5-9.1,5.5c-3.8,0.1-7.4-2-8.9-5.5c-2.3-4.8-2.5-10.4-0.6-15.3
			c0.1-0.4,0.3-0.7,0.6-0.9c1.2-0.9,2.1-2.2,2.5-3.6c0.7-2.4,2.9-4,5.4-3.9c2.4,0,4.5-1.7,5-4.1c0.1-0.7,0-1.1-0.8-1.2
			c-2.3-0.3-4.7-0.3-7.1,0c-6,1.1-10.5,4.1-13,9.8c-2.4,5.1-3,10.9-1.8,16.4c0.6,3.4,2,6.7,4.2,9.4C37.5,44.9,42.5,46.5,48.2,46.6z"
			/>
		<path id="Path_4" style="&st0;" d="M101,12.3c-0.5-1.5-1.4-2.8-2.6-3.8c-2.5-2.2-5.5-2.7-8.6-2.6l-17.6,0c-1,0-1.1,0.3-1.1,1.6
			c0,9.7,0,19.5,0,29.2c0,1.6,0.4,3.1,1.1,4.5c1,2.4,3.2,4,5.8,4.3c1.2,0.2,1.4,0,1.4-1.2c0-3.9,0-7.8,0-11.7c0-1.1,0.1-1.2,1.2-1.2
			c3.2,0,6.3,0,9.5,0c1.6,0,3.2-0.3,4.7-0.8c3.2-1,5.6-3.5,6.4-6.7C102.3,20,102.2,16,101,12.3z M87.7,24.6c-2.2,0-4.4,0-6.7,0h-1.5
			l0-2.6c0-1.1,0-2.2,0-3.4c0-1.4,0-2.8,0-4.2v-1.7l3.1,0c2,0,4,0,5.9,0c2.8,0,4.8,2.2,5.1,5.3C94,22,91.7,24.6,87.7,24.6L87.7,24.6
			z"/>
		<path id="Path_5" style="&st0;" d="M23.7,12.6c0.8,0,1.6,0,2.4-0.1c3.1,0,5.8-2.2,6.5-5.2C32.7,6.2,32.6,6,31.4,6
			c-4.1,0-8.2,0-12.3,0v0c-4.1,0-8.3,0-12.4,0C3.5,6,0.7,8.2,0.1,11.3c-0.3,1.2-0.2,1.4,1.1,1.4l1.4,0h9.5v4.5c0,6.4,0,12.7,0,19.1
			c0,1.4,0.3,2.9,0.8,4.2c0.9,2.7,3.2,4.6,6,5.1c1.3,0.3,1.6,0,1.6-1.3c0-4.4,0-8.9,0-13.3c0-4,0-8.1,0-12.1v-6.3L23.7,12.6z"/>
		<path id="Path_6" style="&st0;" d="M54.9,10.4c0.5-1.4,1.6-1.7,2.9-1.9c4-0.8,5.8-4.5,6.6-7.6C64.5,0.3,64.3,0,63.7,0
			c-2.5,0-4.9,0.9-6.9,2.4c-1.3,1.1-1.9,2.9-1.7,4.6c1.8-2.1,3.6-4,6.3-4.7C58.4,4.3,55.9,6.7,54.9,10.4z"/>
	</g>
</g>
</svg>
