<?xml version="1.0" encoding="utf-8"?>
<!-- Generator: Adobe Illustrator 25.2.1, SVG Export Plug-In . SVG Version: 6.00 Build 0)  -->
<!DOCTYPE svg PUBLIC "-//W3C//DTD SVG 1.0//EN" "http://www.w3.org/TR/2001/REC-SVG-20010904/DTD/svg10.dtd">
<svg version="1.0" id="Layer_1" xmlns="http://www.w3.org/2000/svg" xmlns:xlink="http://www.w3.org/1999/xlink" x="0px" y="0px"
	 viewBox="0 0 69.1 83.4" style="enable-background:new 0 0 69.1 83.4;" xml:space="preserve">
<g>
	<path d="M68.1,37c-1.3-6.9-3.9-13.2-8.7-18.4c-0.5-0.6-1-1.6-2-1.2c-0.8,0.3-0.7,1.4-0.7,2.1c0,1.8-1.3,3.3-3,3.6
		c-0.5,0.1-0.9,0.2-1.3,0.4c-3.4,1-4.1,3-2.4,6.1c5.3,10.3,5.7,20.7,0.7,31.2c-3.2,6.7-9,9.9-16.3,9.8s-12.8-3.4-16-9.9
		c-4.3-8.9-4.4-18.2-1-27.4c0.2-0.7,0.6-1.2,1.1-1.7c2.4-1.5,3.6-3.8,4.5-6.5c1.6-4.5,4.7-6.9,9.7-6.9c4.3-0.1,8-3.1,8.9-7.3
		c0.2-1.2,0-2-1.4-2.1C36,8,31.7,8,27.5,8.7C16.8,10.6,8.7,16,4.2,26.2C0.1,35.6-1.3,45.3,1,55.5c1.4,6.1,3.4,12,7.5,16.8
		c6.8,7.9,15.7,10.8,25.8,11.1c2.4,0.1,4.8-0.1,7.1-0.7c10.4-2.2,18.6-7.4,23.2-17.3C68.8,56.6,70.1,46.6,68.1,37z"/>
	<path d="M46.4,18.5c0.9-2.4,2.9-3,5.2-3.4C58.7,13.7,62,7,63.3,1.4c0.2-1-0.2-1.5-1.2-1.5c-4.5,0.3-8.8,1.3-12.4,4.4
		c-2.4,2.1-3.2,5-3,8.2C49.8,8.8,53.1,5.4,58,4C52.7,7.7,48.2,11.9,46.4,18.5z"/>
</g>
</svg>
