<?xml version="1.0" encoding="utf-8"?>
<!-- Generator: Adobe Illustrator 25.2.1, SVG Export Plug-In . SVG Version: 6.00 Build 0)  -->
<!DOCTYPE svg PUBLIC "-//W3C//DTD SVG 1.0//EN" "http://www.w3.org/TR/2001/REC-SVG-20010904/DTD/svg10.dtd" [
	<!ENTITY st0 "fill:#1A1818;">
]>
<svg version="1.0" id="Layer_1" xmlns="http://www.w3.org/2000/svg" xmlns:xlink="http://www.w3.org/1999/xlink" x="0px" y="0px"
	 viewBox="0 0 206.7 206.7" style="enable-background:new 0 0 206.7 206.7;" xml:space="preserve">
<g>
	<path style="&st0;" d="M103.4,6C49.6,6,6,49.6,6,103.4s43.6,97.3,97.3,97.3c53.7-0.1,97.3-43.6,97.3-97.3
		C200.7,49.6,157.1,6,103.4,6z M103.4,198.8c-52.7,0-95.4-42.7-95.4-95.4S50.6,7.9,103.4,7.9c52.7,0.1,95.4,42.8,95.4,95.4
		C198.8,156.1,156.1,198.8,103.4,198.8z"/>
	<path style="&st0;" d="M103.4,0C46.3,0,0,46.3,0,103.4s46.3,103.4,103.4,103.4c57.1-0.1,103.3-46.3,103.4-103.4c0,0,0,0,0,0
		C206.7,46.3,160.4,0,103.4,0z M103.4,203c-55,0-99.6-44.6-99.6-99.6c0-55,44.6-99.6,99.6-99.6c55,0.1,99.6,44.6,99.6,99.6
		C203,158.4,158.4,203,103.4,203z"/>
	<path style="&st0;" d="M170.4,103.4C170.4,103.4,170.4,103.4,170.4,103.4c0-37-30-67-67-67c-37,0-67,30-67,67s30,67,67,67
		C140.4,170.3,170.3,140.4,170.4,103.4z M103.4,167.6c-35.5,0-64.2-28.7-64.2-64.2s28.7-64.2,64.2-64.2c35.4,0,64.2,28.8,64.2,64.2
		C167.6,138.8,138.8,167.6,103.4,167.6z"/>
	<polygon style="&st0;" points="21.1,107.9 25.1,104.9 20.1,104.9 18.5,100.2 17,105 12,105 16.1,107.9 14.6,112.7 18.6,109.7 
		22.7,112.6 	"/>
	<polygon style="&st0;" points="186.7,95.6 181.7,95.7 185.8,98.6 184.3,103.4 188.3,100.4 192.4,103.3 190.8,98.5 194.8,95.6 
		189.8,95.6 188.2,90.8 	"/>
	<path style="&st0;" d="M16.9,92.2c0.3,0,0.6,0,0.9,0l0.6-0.1l0.8-0.2l0.2,0l0.1,0c0.1,0,0.1,0.1,0.1,0.1l-0.3,2l-0.2,1l0,0.2
		c0,0.1,0.1,0.2,0.2,0.2l0.3,0c0.8,0.1,1.2,0.3,1.3,0.6l0.1,0l0.1-0.3c0.1-0.4,0-0.9-0.2-1.2c-0.1-0.3-0.4-0.5-0.6-0.7l-0.3-0.2
		c-0.1-0.1-0.2-0.2-0.2-0.3l0.2-0.9c0-0.2,0.1-0.3,0.2-0.3l0.2,0l0.6,0.2l0.5,0.1l0.5,0.2c0.2,0.1,0.4,0.1,0.6,0.1l0.9,0.2l0.9,0.2
		l0.3,0l0.2,0c0.1-0.1,0.2-0.2,0.2-0.4l0.1-0.7l0-0.8l-0.1-0.1c-0.3,0.1-0.6,0.2-1,0.1l-1.2-0.2c-0.6-0.1-1-0.2-1.2-0.3l-1.2-0.3
		c-0.1,0-0.2-0.1-0.2-0.1c0-0.1,0-0.2,0-0.2l0.3-1.5c0,0,0-0.1,0-0.1c0-0.2,0.2-0.3,0.4-0.3c0.6,0.2,1.2-0.2,1.4-0.7
		c0.1-0.3,0.2-0.6,0.2-0.9l-0.1-0.1c-0.1,0.2-0.3,0.2-0.6,0.1l-0.4-0.1l-0.4-0.1l-0.3-0.1c-0.1,0-0.2,0-0.2,0c0,0.1-0.1,0.2-0.1,0.3
		L20,90.2l-0.2,0l-0.2,0l-0.5,0.1H19c-0.1,0-0.2-0.1-0.2-0.2c0-0.1,0-0.2,0-0.3l0-0.4l0-0.5c-0.1-0.4-0.3-0.8-0.7-1.1
		c-0.2-0.1-0.5-0.2-0.7-0.2l-0.3,0h-0.3c-0.1,0-0.3,0.1-0.4,0.1c-0.3,0.3-0.5,0.7-0.5,1.1c-0.1,0.8-0.1,1.6,0,2.4
		C15.9,91.7,16.3,92.1,16.9,92.2z M16,89.5c0.1-0.3,0.4-0.6,0.8-0.5l0.2,0l0.3,0c0.4,0,0.9,0.2,1.1,0.5l0.2,0.2
		c0.1,0.1,0.1,0.3,0.1,0.5l-0.5,0.2c-0.1,0-0.2,0.1-0.3,0.1c-0.3,0.1-0.5,0.1-0.8,0.1l-0.2,0l-0.2-0.1c-0.2-0.1-0.4-0.2-0.5-0.3
		C16,90,15.9,89.8,16,89.6C16,89.6,16,89.5,16,89.5z"/>
	<path style="&st0;" d="M18.2,83.5c0.4,0.1,0.7,0.3,0.8,0.7l0.1-0.1l0.1-0.4l0.1-0.3l0-0.3l0-0.3l0-0.3c0-0.2-0.2-0.5-0.3-0.6
		c-0.2-0.2-0.4-0.3-0.6-0.5c-0.1-0.1-0.2-0.2-0.3-0.3c0-0.1,0-0.2,0-0.3l0.3-0.9c0,0,0-0.1,0-0.1c0.1-0.2,0.4-0.3,0.6-0.2l2,1.1
		c0.1,0,0.2,0.1,0.3,0.1c0.3,0.1,0.4,0,0.5-0.2l0.1-0.3c0.1-0.2,0.2-0.3,0.4-0.2l4.1,2.1l0.2,0.1l0.2,0.1c0.1,0.1,0.3,0,0.4-0.1
		c0.1-0.1,0.2-0.3,0.3-0.4l0.2-0.7l0.2-0.7l-0.1-0.1c-0.2,0.1-0.4,0.1-0.5,0l-4-2L23,78.3l-0.1,0l-0.1,0c-0.2-0.1-0.4,0-0.5,0.3
		c-0.1,0.3-0.2,0.5-0.5,0.4l-2.3-1.3c-0.2-0.1-0.3-0.2-0.4-0.3c0-0.1,0-0.3,0-0.4l0.3-1c0-0.2,0.1-0.3,0.3-0.3c0.2,0,0.3,0,0.5,0
		l0.4,0l0.3,0c0.2-0.1,0.4-0.2,0.6-0.3c0.2-0.3,0.4-0.6,0.5-0.9c0-0.2,0.1-0.3,0.1-0.5l-0.1-0.1C21.9,74,21.8,74,21.6,74l-0.2,0
		L21,73.9l-0.6-0.2l-0.3-0.1c-0.1,0-0.2,0-0.3,0c-0.1,0.1-0.1,0.1-0.1,0.2l-2.4,8.9c0,0.1-0.1,0.2,0,0.3c0,0.1,0.1,0.2,0.2,0.2
		L18.2,83.5z"/>
	<path style="&st0;" d="M25.9,65.3c0.3,0.3,0.6,0.6,1,0.8l4.5,2.5c0.2,0.2,0.5,0.2,0.7,0.1c0.2-0.2,0.4-0.4,0.5-0.6l0.1-0.2l0.1-0.2
		l0.2-0.6l-0.2-0.2C32.7,67,32.5,67,32.3,67c0,0-0.2-0.1-0.6-0.2L29,65.2l-1.3-0.7L27,64.1l-0.3-0.2L26,63.4
		c-0.2-0.2-0.3-0.4-0.4-0.7c0-0.3,0.1-0.5,0.2-0.8c0.1-0.2,0.2-0.3,0.4-0.3c0.3,0,0.6,0,0.9,0c0.1,0,0.2,0,0.3,0.1l0.2,0.1
		c0.1,0,0.1,0.1,0.2,0.1l0.2,0.1c0.2,0.1,0.3,0.1,0.5,0.2l5,2.9c0.2,0.1,0.4,0.2,0.7,0.3c0.2,0,0.3-0.2,0.4-0.3l0,0l0.1-0.1
		c0,0,0,0,0,0l0.1-0.2l0.4-0.7l0.5-1.1l0-0.1c0,0,0.1-0.1,0.1-0.1c0.1,0,0.2,0,0.3,0c0.2,0,0.3,0,0.5-0.1c0.1-0.1,0.3-0.1,0.4-0.3
		L37,62l0.1-0.1c0.1-0.2,0.2-0.5,0.3-0.8l0-0.1c-0.3,0.1-0.6,0.1-0.9,0c-0.2-0.1-0.3-0.2-0.4-0.4l-0.2-0.3l-0.1-0.2L35.7,60l-0.1,0
		c-0.1,0.1-0.1,0.1-0.2,0.2l-0.2,0.3l-0.1,0.2c-0.2,0.3-0.3,0.6-0.2,0.9c0,0.2,0.1,0.3,0.2,0.5l0.1,0.2l0.1,0.1l0,0.2
		c0,0.1,0,0.1,0,0.2L35.1,63L35,63.2l-0.1,0.1l0,0c-0.2,0.1-0.4,0.1-0.6,0c-0.1,0-0.3-0.1-0.6-0.3l-4.5-2.5
		c-0.2-0.1-0.3-0.2-0.5-0.2l-0.5-0.2c-0.3-0.1-0.7-0.1-1,0c-0.8,0.3-1.4,0.8-1.7,1.6c-0.2,0.4-0.3,0.8-0.3,1.3
		c0,0.5,0.1,0.9,0.2,1.3C25.4,64.7,25.6,65,25.9,65.3z"/>
	<path style="&st0;" d="M32.7,51.6l-0.2,0.3l-0.2,0.3c-0.1,0.2-0.2,0.4-0.2,0.6c-0.1,0.2-0.1,0.4-0.1,0.5l0,0.5c0,0.5,0,1,0.2,1.4
		l0.1,0.3l0.2,0.3c0.2,0.3,0.3,0.5,0.4,0.6l0.4,0.4c0.3,0.3,0.5,0.5,0.7,0.6c0.3,0.3,0.7,0.6,1.2,1l1.3,0.9l0.4,0.3l0.2,0.1
		c0.2,0,0.3-0.1,0.5-0.3l0.4-0.7c0.1-0.1,0.2-0.3,0.3-0.4l0-0.1l-0.2,0l-0.1-0.1l-0.3-0.2l-1.3-0.9l-0.7-0.5L35,56.1l-1-0.9
		c-0.3-0.3-0.7-0.6-1-1c-0.2-0.2-0.3-0.5-0.4-0.7c-0.2-0.5-0.1-1,0.2-1.4c0.2-0.3,0.6-0.4,0.9-0.4c0.3,0.1,0.7,0.2,1,0.3l3.7,2.9
		l0.6,0.5l0.2,0.2l0.3,0.2c0.2,0.2,0.4,0.2,0.6,0.2c0.2-0.1,0.3-0.2,0.4-0.4l0.2-0.3l0.2-0.4l0.2-0.6L41,54.3c-0.1,0-0.1,0.1-0.2,0
		c-0.1,0-0.1,0-0.2,0l-2.8-2.2L37,51.5l-0.4-0.3c-0.3-0.2-0.7-0.4-1.1-0.6c-0.5-0.2-1.1-0.2-1.6,0C33.4,50.8,33,51.1,32.7,51.6z"/>
	<polygon style="&st0;" points="41,54.3 41,54.3 41,54.3 	"/>
	<path style="&st0;" d="M29.1,54.1c0.2,0,0.4,0.1,0.5,0.2l0.2,0.1l0.1,0.1l0.1,0.2l0,0.1h0.1l0.1-0.1l0.1-0.1l0.1-0.1l0.1-0.2
		l0.2-0.4c0.1-0.3,0.1-0.7-0.1-1c0-0.1-0.1-0.1-0.1-0.2c0-0.1,0.1-0.2,0.2-0.2l1.5-2.7l0,0c0-0.1,0.1-0.1,0.2-0.1l0.5,0
		c0.2,0,0.3-0.1,0.4-0.3l0.2-0.2l0.1-0.1l0.2-0.2l0.2-0.3l0-0.1c-0.3,0.1-0.6,0-0.7-0.2l-0.2-0.2L32.8,48l-0.3-0.4l-0.1,0l-0.3,0.5
		l-0.2,0.3l-0.1,0.3c0,0.1-0.1,0.3,0,0.4l0,0.2l0,0.2l0,0.1c0,0.1,0,0.1,0,0.2l-1.5,2.7l-0.1,0.1c0,0-0.1,0.1-0.1,0.1l-0.1,0
		c-0.2,0-0.5,0-0.7,0.1c-0.1,0.1-0.2,0.2-0.3,0.3l-0.2,0.3L28.6,54l0,0.1C28.8,54,29,54.1,29.1,54.1z"/>
	<path style="&st0;" d="M38.3,44.8c0.1,0.2,0.3,0.3,0.4,0.5l0.2,0.5c0.1,0.3,0.2,0.7,0.3,1c0.1,0.5,0.2,1.1,0.2,1.6l0.1,1.4
		c0,0.5,0.1,0.9,0.2,1.3l0,0.2l0.1,0.2l0.2,0.3c0.1,0.2,0.3,0.4,0.5,0.6l0.2,0.2c0.2,0.2,0.4,0.3,0.7,0.4c0.2,0,0.4,0.1,0.6,0
		c0.5-0.1,0.9-0.3,1.2-0.7l0.2-0.3l0.2-0.3l0.3-0.6l0.2-0.5l0.2-0.5c0.3,0,0.5-0.2,0.7-0.3l0.1-0.1l0.1-0.2c0.1-0.1,0.2-0.3,0.3-0.6
		l0.2-0.5l0-0.1l0.1-0.1l0.2-0.3l0.1-0.2l0.2-0.3l0.1-0.3l0.1-0.3l0.1-0.2l0.1-0.2c0-0.1,0-0.3,0-0.4c0-0.3-0.2-0.5-0.4-0.7
		c-0.1-0.1-0.2-0.2-0.3-0.3l-0.2-0.1l-0.1-0.1c-0.2-0.1-0.4-0.1-0.5-0.1c-0.3,0-0.6,0.1-0.8,0.4l-0.1,0.1L44,45.3l-0.7,1.5l-0.6,1
		c-0.1,0.2-0.2,0.5-0.3,0.7c-0.1,0.4,0.1,0.8,0.4,1.1c0.1,0.1,0.3,0.2,0.4,0.3c0.1,0,0.2,0.1,0.3,0.1l0.4,0.1
		c-0.1,0.4-0.4,0.8-0.7,1.1c-0.3,0.4-0.8,0.3-1.4-0.1l-0.1-0.1l-0.1-0.1c-0.2-0.2-0.4-0.5-0.6-0.8c-0.1-0.3-0.2-0.6-0.3-0.9l-0.1-1
		l-0.1-1.7l0-0.5l-0.1-0.5c0-0.4-0.1-0.7-0.2-1.1c-0.1-0.5-0.4-1-0.7-1.4c-0.4-0.2-0.6-0.2-0.8,0l-0.2,0.2l-0.4,0.6l-0.4,0.7l0,0.1
		C38,44.6,38.2,44.7,38.3,44.8z M43.9,48.2l-0.2-0.1c-0.1,0-0.1-0.1-0.2-0.1l-0.1-0.1l-0.1-0.1c-0.1-0.2,0-0.5,0.1-0.6l0.2-0.3
		c0-0.1,0.1-0.1,0.1-0.2l0.1-0.1c0.1,0,0.2-0.1,0.2-0.1c0.3,0,0.5,0.1,0.8,0.2l0.5,0.3l0.1,0.1c0.2,0.1,0.3,0.4,0.2,0.6l0,0.1l0,0.1
		L45.5,48c0,0.1-0.1,0.1-0.1,0.2l-0.1,0.1c-0.1,0.1-0.3,0.2-0.5,0.3c-0.2,0-0.3,0-0.5-0.1l-0.3-0.1C44,48.3,44,48.3,43.9,48.2z"/>
	<path style="&st0;" d="M43.5,39.8L43.5,39.8l0.5-0.5l0.3-0.4c0.1-0.1,0.1-0.3,0.1-0.5c0-0.1,0-0.3-0.1-0.4c0-0.1,0-0.2,0.2-0.3
		l0.5-0.6c0.1-0.1,0.2-0.1,0.3,0l0.4,0.6c0,0.1,0.1,0.1,0.1,0.2l-0.1,0.2c-0.2,0.6-0.2,1.3-0.1,1.9l0.1,0.2l0.1,0.2l0.1,0.3
		c0.1,0.2,0.2,0.4,0.4,0.6c0.3,0.3,0.6,0.6,0.9,0.9c0.3,0.2,0.6,0.5,0.9,0.6l0.4,0.2c0.2,0.1,0.3,0.1,0.4,0.2l-0.1,0.4L48.4,44
		c-0.1,0.3-0.3,0.6-0.5,0.8L47.8,45c0,0.1,0,0.1,0.1,0.2l0.1,0.1l0.2,0.2l0.1,0.2l0.2,0.2l0.1,0.2c0.1,0.1,0.1,0.3,0.2,0.4l0.1,0
		c0.2-0.2,0.3-0.4,0.4-0.5c0.1-0.2,0.2-0.4,0.3-0.6c0.1-0.3,0-0.6-0.2-0.8L49,44.2l-0.1-0.1c0,0-0.1-0.1-0.1-0.2
		c0-0.1,0-0.2,0.1-0.2l0.3-0.5l0.5-0.1c0.2-0.1,0.4-0.2,0.5-0.3c0.1-0.1,0.3-0.2,0.5-0.5l0.4-0.4l0.3-0.2c0.2-0.2,0.5-0.2,0.8-0.1
		c0.2,0.1,0.3,0.1,0.5,0.2c0.2,0,0.3,0,0.5,0l0.2-0.1l0.1-0.1l0.3-0.2l0.4-0.3l0-0.1c-0.2,0-0.4-0.1-0.5-0.2l-0.1-0.1l-0.1-0.1
		l-0.2-0.3L53.1,40c-0.1-0.1-0.2-0.1-0.3,0l0,0l-0.1,0c-0.4,0.4-0.8,0.9-1.3,1.3c-0.1,0.1-0.3,0.2-0.5,0.4l-0.2,0.1l-0.2,0.1
		c-0.3,0.1-0.6,0-0.9-0.1c-0.1,0-0.3-0.1-0.4-0.1l-0.4-0.2l-0.3-0.2l-0.1-0.1L48.3,41l-0.2-0.2L48,40.7l-0.1-0.1l-0.1-0.2
		c0.2-0.1,0.4-0.2,0.7-0.3l0.1-0.1l0.2-0.1l0.1,0l0.2-0.2c0.3-0.2,0.5-0.5,0.6-0.8c0.1-0.2,0.1-0.5,0.1-0.7c0-0.2,0-0.4-0.1-0.6
		l-0.1-0.3l0.4-0.4c0.1-0.2,0.4-0.2,0.5-0.1l0.4,0.2l0.2,0.1l0.1,0c0.2,0.1,0.4,0,0.5-0.1l0.2-0.1l0.6-0.5l0-0.1
		c-0.2,0-0.5-0.1-0.7-0.3c-0.1-0.1-0.2-0.1-0.2-0.2l-0.2-0.2l-0.1-0.2c-0.1,0-0.2,0-0.3,0l-0.2,0.2l-0.3,0.3l-0.4,0.4l-0.2,0.2
		l-0.4,0.3l-0.1-0.2L49,36.7c-0.1-0.2-0.3-0.3-0.5-0.4c-0.2-0.1-0.4-0.1-0.6-0.1c-0.2,0-0.4,0.1-0.6,0.2l-0.5,0.3L46.4,36l0-0.1
		c0,0,0-0.1,0-0.1l0.4-0.4l0.1,0c0.1-0.1,0.3-0.2,0.4-0.1c0.3,0.1,0.6,0.1,0.9-0.2c0,0,0.1-0.1,0.4-0.4l0.3-0.4l0-0.1
		c-0.2,0.1-0.4,0-0.5-0.1L48.2,34l-0.1-0.1l-0.1-0.2l-0.1-0.2l-0.1-0.2l0-0.1h-0.1l-0.1,0.1l-0.3,0.3l-0.2,0.2l-0.1,0.2
		c-0.2,0.3-0.2,0.6-0.1,0.9l0,0.1c0,0-0.1,0.1-0.1,0.1l-2.5,2.6c-0.1,0.1-0.2,0.1-0.3,0c-0.3-0.2-0.7-0.1-0.9,0.1l-0.6,0.6v0.1
		c0.3,0.1,0.5,0.2,0.7,0.5C43.3,39.2,43.4,39.5,43.5,39.8z M46.4,37.4l0.2-0.1c0.3-0.1,0.6,0,0.8,0.2l0.1,0.1h0
		c0.2,0.2,0.3,0.4,0.5,0.7c0.5,0.8,0.6,1.4,0.1,1.8l-0.1,0.1c0,0,0,0,0,0c-0.2,0.1-0.5,0.1-0.7-0.2c-0.5-0.5-0.8-1-1-1.7
		C46,37.9,46.1,37.6,46.4,37.4z"/>
	<path style="&st0;" d="M58.6,27.7l0.8,1.4c0.1,0.2,0.2,0.2,0.3,0.2l0.2-0.1l0.3-0.2c0.2-0.2,0.3-0.3,0.3-0.3l0.3-0.2
		c0.1-0.1,0.2-0.1,0.3-0.1c0.1,0,0.1,0.1,0.1,0.1l0,0.2l0,0.1v0.1c-0.1,0.8-0.2,1.4-0.3,1.8l-0.1,0.8l0,0.6v0.6l0,0.5
		c0,0.8,0.2,1.6,0.5,2.4c0.2,0.3,0.3,0.5,0.5,0.5c0.2,0,0.5-0.1,0.7-0.2l0.7-0.4l0.2-0.1l0.3-0.2l0-0.2c-0.2,0-0.5-0.3-0.8-0.8
		c-0.3-0.7-0.5-1.4-0.6-2.2c0-0.4,0-0.7,0-1.1c0-0.2,0.1-0.4,0.1-0.6c0.1-0.2,0.2-0.3,0.3-0.4c0.2-0.2,0.5-0.2,0.8-0.1
		c0.2,0.1,0.4,0.3,0.6,0.5l0.9,1.4l0.9,1.3c0.1,0.2,0.3,0.4,0.5,0.5c0,0,0.1,0,0.1,0l-0.1,0.2l0.4-0.2c0,0,0.1,0,0.1-0.1l0.1,0
		l0.3-0.2l0,0l0,0l1-0.7l0.1,0c0.1,0,0.1,0,0.2,0c0.1,0,0.2,0.1,0.3,0.2c0.1,0.1,0.3,0.1,0.4,0.2c0.2,0,0.3,0,0.5,0l0.3-0.1l0.1-0.1
		c0.2-0.1,0.5-0.3,0.7-0.5l0-0.1c-0.3,0-0.6-0.2-0.8-0.5c-0.1-0.2-0.1-0.3-0.2-0.5l0-0.4l0-0.2l0-0.2l-0.1,0c-0.1,0-0.2,0-0.3,0.1
		l-0.3,0.1l-0.2,0.1c-0.3,0.1-0.5,0.4-0.7,0.7c-0.1,0.2-0.1,0.3-0.1,0.5v0.2l0,0.2l-0.1,0.2c0,0.1-0.1,0.1-0.1,0.1l-0.2,0.1v0
		c-0.2,0-0.4-0.2-0.5-0.3l-2.1-3c0,0,0-0.1-0.1-0.1c-0.4-0.5-1.2-0.7-1.7-0.2c-0.1,0.1-0.2,0.1-0.3,0.2L63,29.2l-0.9,0.9l0.2-2.1
		l0-0.3c0-0.1,0-0.2,0-0.3c0-0.1-0.1,0-0.3,0.1l-0.5,0.3c-0.2,0.2-0.5,0.2-0.8,0.2c-0.1,0-0.2-0.2-0.4-0.4l-0.7-1.1
		c-0.1-0.2-0.2-0.3-0.4-0.4c-0.1-0.1-0.2,0-0.3,0l-0.1,0.1l-0.2,0.1c-0.1,0.1-0.3,0.2-0.4,0.4L57.9,27l0,0.1
		C58.3,27.2,58.5,27.5,58.6,27.7z"/>
	<path style="&st0;" d="M69,24.5L69,24.5c0.5-0.1,0.8-0.3,1.2-0.6c0.4-0.3,0.6-0.7,0.5-1.1l-0.1-0.5c-0.1-0.5,0.2-0.9,0.6-1l0.1,0
		l0.1,0c0.2-0.1,0.3-0.1,0.5,0c0.1,0,0.2,0.1,0.3,0.3c0.1,0.2,0.1,0.4,0.1,0.6l-0.1,1.3c0,0.2,0,0.4,0.1,0.5c0,0,0,0.1,0.1,0.1
		l0.1,0.1c0.1,0,0.2,0,0.3,0l0.7-0.3l0.2-0.1c0.1-0.1,0.3-0.1,0.5-0.1c0.1,0,0.2,0.1,0.3,0.3c0,0.1,0.1,0.3,0,0.4L74,29
		c0,0.2,0,0.4,0,0.7c0.1,0.3,0.4,0.3,0.8,0.1l0.8-0.4l0.5-0.2l0.1-0.2c-0.1-0.1-0.2-0.2-0.3-0.3c0-0.1,0-0.2,0-0.3l0.4-4.9
		c0-0.1,0-0.2,0-0.3c0-0.1-0.1-0.2-0.3-0.3c-0.1,0-0.3,0-0.4,0L75,23.2c-0.2,0.1-0.4,0.1-0.5,0.1c-0.1,0-0.2-0.1-0.3-0.2
		c0-0.1-0.1-0.3-0.1-0.4l0-1.1c0-0.3,0-0.5-0.1-0.8c-0.1-0.2-0.2-0.3-0.4-0.4c-0.4-0.1-0.8-0.1-1.1,0.1l-0.5,0.2l-0.5,0.2l-0.4,0.2
		l-0.3,0.2L69.6,22c-0.3,0.2-0.5,0.3-0.7,0.4c-0.2,0.1-0.3,0.3-0.3,0.4c0,0,0.1,0.3,0.3,0.8C69,23.9,69,24.2,69,24.5z"/>
	<path style="&st0;" d="M78.3,24.9l0.1,0.3l0,0.1l0.1,0.3l0,0.2l0,0.2c0,0.1,0,0.2-0.1,0.4l0.1,0.1l0.5-0.3l0.3-0.2
		c0.2-0.2,0.3-0.3,0.5-0.5c0.1-0.2,0.2-0.5,0.2-0.7L80,24.1c0-0.2,0-0.3,0-0.5c0.1-0.2,0.2-0.3,0.4-0.3c0.2,0.1,0.4,0.2,0.7,0.3
		c0.3,0,0.6,0,0.9-0.1l0.3-0.1l0.3-0.1l0.6-0.3l0.3-0.1c0.1,0,0.2,0,0.3,0c0.1,0.1,0.1,0.1,0.2,0.2l0.2,2.8l0,0.2
		c0,0.1,0,0.1,0.1,0.2c0.1,0.2,0.4,0.3,0.7,0.2l0.1,0l0.5-0.2l0.4-0.2l0.3-0.2l0-0.2c-0.1,0-0.2-0.1-0.3-0.3l-0.1-0.3l-0.1-2.3
		l0.6-0.2c0.3-0.1,0.6,0,0.7,0.3c0.2,0.3,0.3,0.5,0.5,0.7c0.2,0.1,0.4,0.2,0.7,0.2l0.3,0c0.4-0.1,0.7-0.3,1-0.6l0-0.1
		c-0.2,0-0.4-0.1-0.5-0.3c-0.1-0.2-0.2-0.4-0.3-0.7c-0.1-0.3-0.1-0.4-0.2-0.4c-0.2,0-0.3,0-0.5,0.1l-2.3,0.7c0-0.1,0-0.3-0.1-0.4
		c0-0.2-0.1-0.4-0.3-0.5c-0.2-0.1-0.4-0.1-0.6,0l-0.1,0l-0.2,0.1L84.3,22l-0.9,0.5c-0.1,0.1-0.3,0.1-0.5,0.2c0,0,0,0-0.1,0
		c-0.2,0-0.5,0-0.7-0.1c-0.2-0.1-0.4-0.2-0.5-0.4l0.9-0.4c0.3-0.1,0.5-0.3,0.8-0.5l0.2-0.2l0.2-0.2c0.4-0.5,0.7-1.2,0.7-1.9l0-0.2
		l0-0.1l0-0.3l-0.1-0.2l-0.1-0.2c-0.1-0.2-0.3-0.3-0.5-0.3c-0.4-0.1-0.8-0.1-1.2,0c-0.3,0.1-0.5,0.2-0.8,0.3l-0.8,0.4
		c-0.2,0.1-0.5,0.2-0.7,0.4c-0.2,0.1-0.4,0.3-0.5,0.5c-0.3,0.4-0.4,0.8-0.4,1.2l0,0.2l0,0.2l0,0.1l0.2,0.8c0.1,0.5,0.4,1,0.7,1.4
		l-1.8,1.4l-0.1,0.1c0,0,0,0,0,0.1l0,0.1L78.3,24.9z M81,18.9c0.1-0.2,0.2-0.3,0.3-0.4c0.1-0.1,0.3-0.2,0.4-0.3
		c0.3,0,0.6,0.1,0.7,0.3c0.1,0.1,0.1,0.2,0.2,0.3l0,0.1l0,0.2l0,0.4L82.6,20l-0.1,0.3c-0.1,0.2-0.2,0.4-0.3,0.7
		c-0.1,0.4-0.4,0.7-0.7,0.9c-0.1-0.2-0.2-0.3-0.2-0.3c0-0.1-0.1-0.1-0.1-0.2l-0.1-0.2c0-0.1-0.1-0.1-0.1-0.2l0-0.2l-0.1-0.5
		c0-0.2-0.1-0.4,0-0.7C80.9,19.3,80.9,19.1,81,18.9z"/>
	<path style="&st0;" d="M90.8,23.4l0.1,0.5l0,0.3l0.2,0.6c0.1,0.3,0.4,0.4,0.7,0.4l0.8-0.2l0.7-0.2l0-0.1c-0.2,0-0.3-0.1-0.5-0.4
		l-0.1-0.2L92.8,24c-0.1-0.2-0.1-0.4-0.2-0.6c-0.1-0.5-0.1-1-0.2-1.6l-0.1-1.5l0-0.7l0-0.6c0-0.3,0.1-0.7,0.3-0.9
		c0.2-0.3,0.4-0.5,0.7-0.5l0.3,0l0.2,0h0.2c0.1,0,0.2,0,0.3,0.1c0.4,0.3,0.7,0.7,0.7,1.2l0.2,1.7l0.2,2l0.2,1.8c0,0,0,0.1,0,0.1
		c0.1,0.3,0.4,0.5,0.7,0.5l0.5-0.1l0.4-0.1c0.2-0.1,0.5-0.1,0.7-0.2l0-0.1c-0.2-0.1-0.3-0.2-0.3-0.4l-0.6-5.1c0-0.6-0.4-1.2-1-1.5
		l-1.5-0.4c-0.3-0.1-0.5-0.3-0.7-0.5c-0.2-0.2-0.4-0.5-0.5-0.7l-0.1-0.1l0-0.1l0-0.2c0-0.1,0.1-0.1,0.1-0.1c0,0,0-0.1,0-0.1v0l0-0.1
		L92.6,15l-0.8,0.2c-0.3,0.1-0.5,0.3-0.5,0.4l0.1,0.2l0.1,0.2l0.5,0.7l0.6,0.6l-0.5,0.4c-0.3,0.3-0.6,0.6-0.8,0.9
		c-0.2,0.4-0.4,0.8-0.5,1.2c-0.1,0.3-0.1,0.7-0.1,1c0,0.4,0,0.8,0.1,1.3L90.8,23.4z"/>
	<path style="&st0;" d="M99.1,20.2l0.4,0c0.2,0,0.4,0,0.6-0.1c0.2,0,0.4-0.1,0.6-0.3c0.1-0.1,0.3-0.2,0.4-0.4
		c0.1-0.2,0.2-0.3,0.2-0.5c0.2-0.4,0.3-0.6,0.5-0.6l1.4,0l-0.9,5l-0.1,0.3c0,0,0,0.1,0,0.1v0.1c0,0.1,0,0.1,0,0.2
		c0,0.3,0.3,0.6,0.7,0.5c0.3,0,0.6-0.1,0.9-0.1c0.2,0,0.3,0,0.5,0l0.1-0.1c-0.1-0.1-0.2-0.2-0.2-0.3c-0.1-0.2-0.1-0.4-0.1-0.5
		c0-0.2,0-0.3,0-0.5l0.9-4.7l1.5,0c0.2,0,0.4,0.1,0.4,0.4c0,0.1,0.1,0.2,0.1,0.5c0.1,0.3,0.3,0.6,0.6,0.8c0.4,0.2,0.9,0.2,1.3,0.2
		h0.2l0.1-0.1c-0.3-0.1-0.4-0.4-0.4-0.9c0-0.3,0.1-0.6,0.1-0.8l0-0.2c0-0.1,0-0.1-0.1-0.2c-0.1,0-0.2,0-0.2,0l-3.7,0l0.5-2.3
		c0-0.1,0-0.2,0-0.3c0-0.4-0.2-0.6-0.8-0.6l-0.7,0H104l-0.1,0c-0.3,0-0.5-0.2-0.5-0.5l0-0.5c0-0.2-0.1-0.4-0.2-0.6
		c-0.3-0.3-0.6-0.4-1-0.4l-0.5,0l-0.3,0l-0.1,0.1c0.2,0.4,0.4,0.8,0.3,1.3c0,0.2,0,0.5-0.2,0.7l0.1,0.1c0.1-0.1,0.3-0.1,0.4-0.1
		l0.8,0l0.3,0c0.5,0,0.8,0.2,0.8,0.6l-0.5,2.5l-3.3,0c-0.1,0-0.2,0-0.3,0c-0.1,0-0.1,0.1-0.1,0.3C99.7,18.9,99.4,19.6,99.1,20.2
		L99.1,20.2z"/>
	<path style="&st0;" d="M111.5,24.8c0.1,0,0.3,0.1,0.4,0.1c0,0,0.1,0,0.1,0l0.3,0c0.3,0,0.5,0,0.8,0l0.7-0.1l0.8-0.2
		c0.4-0.1,0.8-0.2,1.2-0.3c0.2,0,0.5-0.1,0.7-0.2l0.3-0.1l0.1-0.1l0.1-0.1c0.2-0.1,0.3-0.2,0.5-0.4l0.1-0.2l0.1-0.1l0-0.2l0-0.1
		l0-0.1l0-0.3c0,0,0-0.1,0-0.1c0-0.3-0.2-0.6-0.6-0.6c-0.1,0-0.1,0-0.2,0c-0.2,0-0.3,0-0.5,0l-0.6,0.1c-0.2,0-0.3,0.1-0.5,0.1
		l-0.1,0.2c0.3,0,0.4,0.2,0.3,0.5l0,0.2l0,0.3l-0.1,0.2c-0.2,0.3-0.4,0.6-0.7,0.7l-0.2,0.1l-0.2,0.1c-0.3,0.1-0.5,0.2-0.6,0.2
		l-0.2,0c0,0-0.1,0-0.1,0l-0.3,0l-0.1,0l-0.1,0c0,0-0.1,0-0.1,0c-0.3-0.1-0.5-0.2-0.7-0.5c-0.2-0.3-0.2-0.6-0.2-0.9l0-0.2l0.2-0.5
		l0.2-0.3l0.3-0.4l0.4-0.4c0.3-0.3,0.6-0.6,1-0.8l1-0.7c0.4-0.2,0.7-0.5,1-0.8c0.3-0.3,0.5-0.4,0.5-0.5l0.4-0.4
		c0.3-0.3,0.5-0.7,0.7-1.1l0.1-0.2l0-0.1c0-0.3-0.1-0.5-0.5-0.6l-1,0c-0.3,0-0.5,0-0.6,0l-0.1,0.1c0.1,0.2,0.2,0.4,0.1,0.6l0,0.2
		l-0.1,0.2l-0.2,0.4l-0.2,0.3l-0.2,0.3c-0.4,0.4-0.8,0.8-1.3,1.1l-1.4,1c-0.4,0.3-0.7,0.5-0.9,0.7c-0.3,0.2-0.5,0.5-0.8,0.8
		c-0.3,0.3-0.5,0.8-0.6,1.2c0,0.3,0,0.6,0.1,0.9C110.5,24.2,110.9,24.6,111.5,24.8z"/>
	<path style="&st0;" d="M125.7,27.6l0.8,0.2l0.2,0L127,28l0.1-0.1c-0.1-0.2-0.1-0.6,0.1-1.1c0.3-0.7,0.7-1.3,1.2-1.9
		c0.3-0.3,0.5-0.5,0.8-0.7c0.2-0.1,0.3-0.2,0.5-0.3c0.2-0.1,0.3-0.1,0.5,0c0.3,0.1,0.5,0.3,0.6,0.5c0.1,0.3,0.1,0.5,0,0.8l-0.4,1.6
		l-0.4,1.5c-0.1,0.2-0.1,0.5,0,0.7c0,0,0,0,0,0c-0.1,0-0.1,0-0.2,0l-0.1,0.1l0.5,0.2c0.1,0,0.1,0.1,0.2,0.1l0.1,0l0.3,0.1l0.1,0
		l0.4,0.1l1.6,0.6c0.7,0.3,1.4,0,1.7-0.7l0.1-0.1l0-0.1l0.1-0.2c0.1-0.3,0.1-0.6,0-0.8c-0.1-0.2-0.2-0.3-0.3-0.4
		c-0.2-0.1-0.3-0.2-0.5-0.3l-0.6-0.3l-0.1-0.1l-0.4-0.1l-0.5-0.2l0.3-1.5c0,0,0-0.1,0-0.1c0.1-0.7-0.3-1.3-1-1.4
		c-0.1,0-0.3-0.1-0.4-0.1l-0.5,0l-1.3,0l1.7-1.3l0.2-0.2c0.1-0.1,0.1-0.1,0.2-0.2c0-0.1-0.1-0.1-0.3-0.2l-0.6-0.2
		c-0.3-0.1-0.5-0.2-0.7-0.4c-0.1-0.1-0.1-0.3,0-0.6l0.3-1.2c0.1-0.2,0.1-0.4,0-0.6c0-0.1-0.1-0.2-0.3-0.2l-0.1,0l-0.3-0.1
		c-0.2,0-0.4-0.1-0.5-0.1l-0.4,0l-0.1,0.1c0.1,0.3,0.1,0.6,0,0.9l-0.5,1.5c-0.1,0.2,0,0.3,0.1,0.3l0.2,0l0.4,0c0.3,0,0.4,0,0.4,0
		l0.3,0.1c0.1,0,0.2,0.1,0.2,0.2c0,0.1,0,0.1,0,0.2l-0.1,0.1L130,22l-0.1,0.1c-0.7,0.4-1.2,0.8-1.5,1l-0.6,0.4l-0.4,0.4l-0.4,0.4
		l-0.4,0.4c-0.6,0.6-1.1,1.2-1.4,2c-0.1,0.2-0.1,0.5-0.1,0.7C125.3,27.5,125.5,27.6,125.7,27.6z M132.4,27.2L132.4,27.2l0.2,0.1
		c0.5,0.2,0.8,0.4,0.8,0.7c0,0.2,0,0.4-0.1,0.5l-0.1,0.2c-0.1,0.2-0.3,0.4-0.4,0.6c-0.2,0.1-0.5,0.2-0.7,0.1l0,0
		c-0.1-0.2-0.1-0.4-0.1-0.5L132.4,27.2z"/>
	<path style="&st0;" d="M138.4,32.7l0.8,0.4l0.5,0.2l0.2-0.1c0-0.1,0-0.3,0-0.4c0-0.1,0.1-0.2,0.2-0.2l3.9-3
		c0.1-0.1,0.1-0.1,0.2-0.2c0.1-0.1,0.1-0.2,0-0.4c-0.1-0.1-0.2-0.2-0.3-0.3l-0.5-0.3c-0.2-0.1-0.3-0.2-0.5-0.3
		c-0.1-0.1-0.1-0.2-0.1-0.3c0.1-0.1,0.2-0.2,0.3-0.3l0.8-0.7c0.2-0.2,0.4-0.4,0.5-0.6c0.1-0.2,0.1-0.4,0.1-0.6
		c-0.2-0.3-0.5-0.6-0.8-0.8l-0.5-0.2l-0.5-0.2l-0.4-0.2l-0.3-0.1l-1.4-0.4c-0.3-0.1-0.6-0.1-0.8-0.2c-0.2-0.1-0.4-0.1-0.5,0
		c0,0-0.2,0.3-0.4,0.8c-0.1,0.3-0.4,0.5-0.6,0.6l0,0.1c0.4,0.2,0.8,0.3,1.2,0.4c0.4,0.1,0.9-0.1,1.2-0.4l0.3-0.4
		c0.3-0.4,0.8-0.5,1.2-0.2l0.1,0l0.1,0c0.2,0.1,0.3,0.2,0.4,0.4c0.1,0.1,0.1,0.3,0,0.4c-0.1,0.2-0.2,0.3-0.4,0.5l-1,0.8
		c-0.1,0.1-0.3,0.2-0.4,0.4c0,0,0,0.1,0,0.1l0,0.1c0,0.1,0.1,0.2,0.2,0.2l0.7,0.3l0.1,0.1c0.2,0.1,0.3,0.2,0.4,0.3
		c0.1,0.1,0,0.3,0,0.4c-0.1,0.1-0.2,0.2-0.3,0.3l-3.6,2.8c-0.2,0.1-0.3,0.3-0.5,0.5C137.8,32.2,138,32.5,138.4,32.7z"/>
	<path style="&st0;" d="M143.7,33.3c-0.1-0.1-0.2-0.1-0.3,0l0,0l-0.2,0.3l-0.1,0.1L143,34l-0.2,0.2c-0.1,0.1-0.2,0.2-0.4,0.2l0,0.2
		c0.4,0.1,0.6,0.2,0.7,0.3l0.4,0.1l0.3,0c0.4,0,0.8-0.2,1-0.5c0.1-0.2,0.4-0.2,0.5-0.1l0.2,0.1l0.1,0.1c0.1,0,0.2,0.1,0.3,0.2
		c0.2,0.1,0.4,0.2,0.7,0.4l0.5,0.3l0.3,0.2l0.2,0.2c0.2,0.3,0.3,0.6,0.2,0.8c-0.2,0.4-0.2,0.9,0.1,1.3l0.1,0.1l0.1,0.1l0.3,0.2
		l0.4,0.2l0.3,0.2l0.2-0.1c0-0.5,0.2-1,0.4-1.4c0.1-0.1,0.1-0.3,0.1-0.3c-0.1-0.1-0.2-0.2-0.3-0.3l-1.3-0.9
		c-0.3-0.2-0.6-0.5-0.7-0.8l0-0.6l0-0.6l0-0.3l0.1-0.3c0.1-0.3,0.1-0.5,0.1-0.5l0.2-0.5l0.8,0.3c0.2,0.1,0.4,0.2,0.5,0.2
		c0.4,0.1,0.9,0.2,1.3,0.1c0.4-0.2,0.8-0.3,1-0.4l0.7,0.4c0.3,0.2,0.3,0.5,0.2,0.9l-0.1,0.3l0,0.2c0,0.2,0,0.3,0.1,0.5l0.1,0.2
		l0.1,0.1l0.1,0.1l0.2,0.1l0.4,0.2l0.4,0.2l0.2-0.1c-0.3-0.2-0.2-0.7,0.2-1.3c0.1-0.1,0.1-0.2,0.1-0.3c0-0.1-0.1-0.1-0.2-0.2L152,32
		c0.2-0.2,0.3-0.4,0.5-0.6c0.1-0.2,0.2-0.4,0.2-0.6c0-0.4-0.1-0.7-0.4-1c-0.2-0.2-0.4-0.3-0.6-0.4l-0.2-0.1l-0.2-0.1L151,29
		l-0.2-0.1l-0.6-0.1l-0.5-0.1H149c-0.4,0-0.8,0.1-1.2,0.4l-0.2,0.1c0,0-0.1,0-0.1,0.1l-0.1,0.1l-0.2,0.2l-0.1,0.1l-0.1,0.1l-0.1,0.1
		c-0.1,0.2-0.2,0.4-0.4,0.6l-0.3,0.7l-0.1,0.4l-0.1,0.5l-0.2,1.1c-0.1,0.6-0.1,0.9-0.2,1C145.2,34.1,144.4,33.8,143.7,33.3
		L143.7,33.3z M148.3,31.5l0.2-0.5c0.1-0.3,0.2-0.5,0.3-0.7l0-0.1l0.1-0.1l0.1-0.2l0.2-0.1c0.3-0.3,0.8-0.4,1.2-0.4l0.2,0
		c0.1,0,0.1,0,0.2,0c0.1,0,0.1,0.1,0.2,0.1l0.1,0.1c0.1,0.1,0.2,0.3,0.2,0.4c0,0.2-0.1,0.3-0.2,0.5l-0.1,0.1l-0.1,0.2
		c-0.2,0.2-0.4,0.4-0.6,0.6c-0.2,0.2-0.5,0.3-0.8,0.4c-0.4,0.1-0.8,0.1-1.1,0L148.3,31.5z"/>
	<path style="&st0;" d="M160,48.3c0.1,0.1,0.3,0.2,0.4,0.3l0.1,0c0-0.1,0-0.3,0-0.4c0.1-0.2,0.2-0.3,0.3-0.4
		c0.1-0.1,0.2-0.2,0.4-0.3l4-2.7l1,1.1c0.2,0.1,0.2,0.4,0.1,0.6c0,0.1-0.1,0.2-0.3,0.4c-0.2,0.3-0.2,0.6-0.1,1
		c0.2,0.4,0.4,0.8,0.8,1.1l0.2,0.2h0.1c-0.1-0.3,0-0.6,0.4-0.9c0.2-0.2,0.4-0.3,0.7-0.5l0.1-0.1c0.1-0.1,0.1-0.1,0.1-0.1
		c0-0.1-0.1-0.1-0.1-0.2l-2.6-2.6l2-1.3c0.1-0.1,0.2-0.1,0.3-0.2c0.3-0.3,0.2-0.6-0.1-0.9l-0.5-0.5l-0.1-0.1l-0.1-0.1c0,0,0,0,0,0
		c-0.2-0.2-0.2-0.5,0-0.7l0.3-0.3c0.2-0.2,0.3-0.3,0.3-0.5c0-0.4-0.1-0.7-0.4-1l-0.3-0.4l-0.2-0.2l-0.1,0c-0.1,0.4-0.3,0.8-0.7,1.2
		c-0.2,0.2-0.4,0.3-0.6,0.3l0,0.1c0.1,0,0.3,0.1,0.4,0.2l0.5,0.5l0.2,0.2c0.4,0.4,0.4,0.7,0.1,1l-2.1,1.5l-2.4-2.3
		c-0.1-0.1-0.1-0.1-0.2-0.2c-0.1,0-0.2,0-0.3,0.1c-0.4,0.5-1,0.8-1.7,0.9l0,0.1l0.3,0.3c0.2,0.1,0.3,0.3,0.5,0.4
		c0.2,0.1,0.4,0.2,0.6,0.2c0.2,0,0.4,0,0.5,0c0.2-0.1,0.4-0.1,0.5-0.2c0.4-0.2,0.7-0.2,0.8-0.1l1,1l-4.2,2.8l-0.3,0.2
		c0,0-0.1,0.1-0.1,0.1l-0.1,0.1c0,0-0.1,0.1-0.1,0.1c-0.2,0.3-0.2,0.6,0.1,0.8C159.6,48,159.8,48.1,160,48.3z"/>
	<path style="&st0;" d="M168.6,51.4c-0.4-0.1-0.9-0.1-1.4-0.1l-0.2,0l-0.2,0l-0.4,0.1c-0.2,0.1-0.5,0.2-0.7,0.3l-0.2,0.2
		c-0.2,0.2-0.4,0.4-0.5,0.6c-0.1,0.2-0.1,0.4-0.2,0.6c0,0.5,0.2,1,0.5,1.3l0.2,0.3l0.2,0.3l0.5,0.4l0.5,0.3l0.5,0.3
		c0,0.3,0.1,0.5,0.2,0.7l0.1,0.1l0.2,0.1c0.1,0.1,0.3,0.2,0.5,0.4l0.4,0.3l0.1,0.1l0.1,0.1l0.2,0.2l0.1,0.1l0.3,0.3l0.2,0.2l0.2,0.2
		l0.2,0.1l0.2,0.1c0.1,0.1,0.3,0.1,0.4,0.1c0.3,0,0.5-0.1,0.7-0.2c0.1-0.1,0.2-0.2,0.3-0.3l0.2-0.2l0.1-0.1c0.1-0.2,0.2-0.3,0.3-0.5
		c0.1-0.3,0-0.6-0.2-0.9l-0.1-0.1l-0.1-0.1l-1.3-1l-0.9-0.8c-0.2-0.2-0.4-0.3-0.7-0.4c-0.4-0.1-0.8-0.1-1.2,0.2
		c-0.1,0.1-0.2,0.2-0.3,0.3c-0.1,0.1-0.1,0.2-0.2,0.3l-0.1,0.4c-0.4-0.2-0.7-0.5-1-0.9c-0.3-0.4-0.2-0.9,0.3-1.4l0.1-0.1l0.1-0.1
		c0.3-0.2,0.6-0.3,0.9-0.4c0.3-0.1,0.6-0.1,1-0.1l1,0.1l1.7,0.3l0.5,0.1l0.5,0c0.4,0,0.8,0.1,1.1,0.1c0.5,0,1.1-0.2,1.5-0.4
		c0.3-0.3,0.3-0.6,0.1-0.8l-0.2-0.2l-0.5-0.5l-0.6-0.6H174c0,0.2-0.1,0.3-0.3,0.4c-0.2,0.1-0.4,0.2-0.6,0.3l-0.6,0.1
		c-0.4,0-0.7,0.1-1.1,0.1c-0.5,0-1.1,0-1.6-0.1L168.6,51.4z M169,56.5l0.2-0.3c0,0,0.1-0.1,0.1-0.1l0.2-0.2c0-0.1,0.1-0.1,0.2-0.1
		l0.2-0.1l0.1,0c0.2,0,0.5,0,0.6,0.2l0.3,0.3c0,0,0.1,0.1,0.1,0.1l0.1,0.2c0,0.1,0,0.2,0,0.3c0,0.3-0.2,0.5-0.4,0.7l-0.4,0.4
		l-0.1,0.1c-0.2,0.2-0.4,0.2-0.7,0.1l-0.1,0l-0.1-0.1l-0.1-0.1c-0.1,0-0.1-0.1-0.1-0.1l-0.1-0.1c-0.1-0.1-0.2-0.3-0.2-0.5
		C168.8,56.8,168.9,56.6,169,56.5z"/>
	<path style="&st0;" d="M173.4,59.5l-0.2-0.1c0,0-0.1,0-0.1,0l-0.1,0l-0.1,0.1l-0.2,0.2l-0.4,0.2l-0.2,0.1l-0.2,0.1
		c-0.1,0-0.2,0-0.4,0l-0.1,0.1l0.4,0.4l0.3,0.3c0.2,0.1,0.4,0.2,0.6,0.3c0.2,0.1,0.5,0.1,0.7,0l0.6-0.2c0.2,0,0.3-0.1,0.5-0.1
		c0.2,0,0.3,0.1,0.4,0.3c-0.1,0.2-0.1,0.5-0.1,0.7c0,0.3,0.1,0.6,0.3,0.8l0.1,0.2l0.2,0.2l0.4,0.5c0.1,0.1,0.1,0.2,0.2,0.3
		c0.1,0.1,0.1,0.2,0.1,0.3c0,0.1-0.1,0.2-0.2,0.2l-2.7,0.9l-0.1,0l-0.1,0.1c-0.1,0-0.1,0.1-0.2,0.1c-0.1,0.1-0.1,0.2-0.2,0.3l-0.1,0
		l0.1,0.2c0,0.1,0.1,0.1,0.1,0.2l0.2,0.2l0.2,0.3l0.7,1l0,0.1c0,0.1,0,0.1,0,0.2c0,0.1-0.1,0.2-0.2,0.3c-0.1,0.1-0.1,0.3-0.2,0.4
		c0,0.2,0,0.3,0,0.5l0.1,0.3l0.1,0.1c0.1,0.2,0.3,0.5,0.5,0.6l0.1,0c0-0.3,0.2-0.6,0.5-0.8c0.2-0.1,0.3-0.1,0.5-0.2l0.4,0l0.2,0
		l0.2,0l0-0.1c0-0.1,0-0.2-0.1-0.3l-0.1-0.3l-0.1-0.2c-0.1-0.3-0.4-0.5-0.7-0.7c-0.2-0.1-0.3-0.1-0.5-0.1l-0.2,0l-0.2,0l-0.2-0.1
		c-0.1,0-0.1-0.1-0.1-0.1l-0.1-0.2l-0.1-0.1c0,0,0,0,0,0c0.1-0.1,0.1-0.1,0.2-0.2l2.8-1c0.1,0,0.3-0.1,0.4-0.2
		c0.2-0.1,0.3-0.2,0.4-0.4c0-0.2,0-0.4-0.1-0.5l-0.1-0.1l-0.1-0.2l-0.1-0.2l-0.7-0.7c-0.1-0.1-0.1-0.1-0.2-0.2l-0.1-0.1l-0.1-0.1
		l-0.1-0.1c-0.1-0.2-0.1-0.4-0.1-0.6c0-0.2,0.1-0.5,0.3-0.6l0.7,0.7c0.2,0.2,0.5,0.4,0.7,0.6c0.1,0.1,0.3,0.2,0.4,0.3l0.2,0.1
		l0.3,0.1c0.5,0.1,1,0.1,1.5,0l0.2,0l0.1,0l0.3-0.1l0.2-0.1l0.2-0.2c0.1-0.2,0.2-0.3,0.2-0.5c0-0.1,0-0.1,0-0.2v-0.1
		c0-0.1,0-0.2-0.1-0.3c-0.1-0.2-0.2-0.4-0.3-0.6c-0.1-0.2-0.3-0.5-0.5-0.7l-0.5-0.7c-0.2-0.2-0.4-0.4-0.6-0.6
		c-0.2-0.2-0.4-0.3-0.7-0.4c-0.3-0.1-0.7-0.2-1-0.1l-0.3,0c-0.2,0-0.3,0.1-0.5,0.1l-0.3,0.1l-0.6,0.3c-0.4,0.3-0.8,0.6-1.1,1
		L173.4,59.5z M177,61.5c0.1-0.1,0.1-0.1,0.2-0.1l0.1-0.1c0.1,0,0.1-0.1,0.2-0.1l0.2-0.1l0.5-0.3c0.2-0.1,0.4-0.2,0.6-0.2
		c0.2,0,0.5,0,0.7,0c0.2,0,0.3,0.1,0.5,0.2c0.2,0.1,0.3,0.2,0.4,0.3c0.1,0.1,0.1,0.3,0.1,0.4c-0.1,0.3-0.2,0.5-0.5,0.6l-0.1,0.1
		l-0.2,0.1l-0.4,0.1l-0.4,0.1l-0.3,0c-0.2,0-0.4-0.1-0.7-0.1c-0.4,0-0.7-0.2-1-0.5C176.9,61.7,177,61.6,177,61.5z"/>
	<path style="&st0;" d="M183.7,70.1l0.5-0.1c0.5-0.1,0.9,0.2,1,0.6l0,0.1l0,0.1c0.1,0.2,0.1,0.3,0,0.5c0,0.1-0.1,0.2-0.3,0.3
		c-0.2,0.1-0.4,0.1-0.6,0.1l-1.3,0c-0.2,0-0.4,0-0.5,0.1c0,0-0.1,0-0.1,0.1l-0.1,0.1c0,0.1,0,0.2,0,0.3l0.3,0.6l0.1,0.2
		c0.1,0.1,0.1,0.3,0.1,0.5c0,0.1-0.1,0.2-0.3,0.3c-0.1,0-0.3,0.1-0.4,0.1l-4.6-0.3c-0.2,0-0.4,0-0.7,0c-0.3,0.1-0.3,0.4-0.1,0.8
		l0.4,0.8l0.2,0.5l0.2,0.1c0.1-0.1,0.2-0.2,0.3-0.3c0.1,0,0.2-0.1,0.3,0l4.9,0.4c0.1,0,0.2,0,0.3,0c0.1,0,0.2-0.1,0.2-0.3
		c0-0.1,0-0.3,0-0.4l-0.2-0.5c-0.1-0.2-0.1-0.4-0.1-0.5c0-0.1,0.1-0.2,0.2-0.3c0.1,0,0.3-0.1,0.4-0.1h1.1c0.3,0,0.5,0,0.8-0.1
		c0.2-0.1,0.3-0.2,0.4-0.4c0.1-0.4,0.1-0.8-0.1-1.1l-0.2-0.5l-0.2-0.5l-0.2-0.4l-0.2-0.3l-0.8-1.2c-0.2-0.3-0.3-0.5-0.4-0.7
		c-0.1-0.2-0.3-0.3-0.4-0.3c0,0-0.3,0.1-0.8,0.3c-0.3,0.1-0.6,0.1-0.9,0l0,0.1c0.2,0.4,0.4,0.7,0.6,1.1
		C182.8,69.9,183.2,70.1,183.7,70.1z"/>
	<path style="&st0;" d="M185.8,76.5l-0.4,0.1l-0.2,0.1l-0.2,0.1c-0.3,0.1-0.6,0.3-0.6,0.6c0,0.3,0,0.6,0.1,0.9l0.4,1.1l0.2,0.8
		l0.3,0.8c0.2,0.5,0.7,0.8,1.2,0.7h0.2l0.2-0.1l0.1,0l0.7-0.2c0.2-0.1,0.3-0.1,0.5,0c0.1,0,0.2,0.1,0.3,0.2l0.1,0.1l0,0.1l0,0.1
		c0.1,0.2,0.1,0.4,0,0.6c-0.1,0.2-0.3,0.4-0.5,0.4l-0.3,0.1l-0.3,0c-0.2,0-0.4,0-0.6,0l-3-0.4c-0.3,0-0.4-0.1-0.6-0.1l-2.8-0.4
		l-0.2,0h-0.1l-0.1,0l-0.1,0c-0.2,0-0.3,0.1-0.3,0.3c0,0.2,0,0.4,0,0.6l0.4,1.4l0.1,0c0.1-0.2,0.3-0.4,0.6-0.4
		c0.3-0.1,0.6-0.1,0.9-0.1l3.6,0.5l0.8,0.1l0.2,0l0.5,0l0.2,0h0.1l0.2,0h0.2l0.1,0l0.2-0.1l0.3-0.1l0.3-0.1l0.3-0.2l0.2-0.2
		c0.3-0.3,0.4-0.6,0.4-1c0-0.3,0-0.7-0.1-1c-0.1-0.2-0.1-0.5-0.2-0.7l-0.4-0.9l-0.2-0.4c-0.1-0.1-0.1-0.3-0.2-0.4l-0.3-0.7l-0.1-0.2
		l0-0.2l-0.1-0.3l-0.2-0.6l-0.1-0.3l-0.1-0.3c-0.1-0.3-0.3-0.5-0.5-0.6C186.5,76.5,186.1,76.4,185.8,76.5z M187.2,78.3
		c0.1,0.1,0.2,0.3,0.3,0.5l0,0.1l0,0.1c0.1,0.2,0,0.5-0.2,0.6c-0.2,0.1-0.4,0.2-0.7,0.3l-0.2,0l-0.3,0l-0.4,0
		c-0.3,0-0.6-0.2-0.8-0.5l0-0.1l0-0.1c-0.1-0.4,0-0.6,0.3-0.7l0.3-0.1l0.1,0c0.3-0.1,0.6-0.1,0.9-0.1
		C186.9,78.2,187,78.2,187.2,78.3z"/>
	<polygon style="&st0;" points="29,128.7 30.6,128.2 28.4,120.4 26.8,120.8 27.6,123.7 19.6,126 20.1,128 28.2,125.7 	"/>
	<path style="&st0;" d="M28.2,129.8c-0.5-0.4-1.1-0.6-1.7-0.7c-0.7-0.1-1.4,0-2,0.3l-0.1,0c-1,0.3-1.8,1-2.3,1.9
		c-0.4,0.9-0.4,1.9-0.1,2.8c0.3,0.9,1,1.7,1.9,2c0.9,0.3,2,0.3,2.9-0.1l0.5-0.2c0.9-0.4,1.6-1,2-1.9c0.4-0.8,0.3-1.8,0-2.6
		C29.1,130.8,28.7,130.2,28.2,129.8z M27.6,133.2c-0.3,0.4-0.8,0.8-1.4,0.9c-0.6,0.3-1.2,0.4-1.8,0.2c-0.4-0.1-0.8-0.4-0.9-0.9
		c-0.2-0.4-0.1-0.9,0.1-1.3c0.3-0.4,0.8-0.8,1.4-0.9l0,0c0.6-0.3,1.2-0.3,1.8-0.2c0.4,0.1,0.8,0.4,0.9,0.9
		C28,132.4,27.9,132.8,27.6,133.2z"/>
	<path style="&st0;" d="M30.5,143.3c0.9-0.4,1.7-1.1,2.2-1.9c0.4-0.7,0.4-1.6,0-2.4c-0.3-0.7-0.9-1.1-1.6-1.3l0.6-0.4l-0.8-1.6
		l-9.2,4.6l0.9,1.8l3.1-1.6c-0.3,0.6-0.2,1.4,0.1,2c0.3,0.8,1,1.3,1.9,1.4C28.6,144.1,29.6,143.9,30.5,143.3L30.5,143.3z
		 M29.7,141.6c-1.4,0.7-2.3,0.6-2.7-0.2c-0.3-0.5-0.2-1.1,0.1-1.5l2.7-1.3c0.5,0,1,0.3,1.2,0.8c0.2,0.4,0.2,0.8,0,1.2
		C30.6,141,30.2,141.3,29.7,141.6z"/>
	<path style="&st0;" d="M37.7,153.2c0.1-0.5,0.1-1-0.1-1.4c0.4,0.3,0.8,0.4,1.3,0.4c0.5,0,0.9-0.2,1.3-0.4c0.7-0.4,1.1-1.1,1.1-1.9
		c0-1-0.4-1.9-1-2.7l-2-2.9l-8.2,5.7l2.2,3.2c0.5,0.8,1.2,1.4,2.1,1.7c0.8,0.2,1.7,0,2.3-0.5C37.2,154.1,37.5,153.7,37.7,153.2z
		 M35.6,152.7c-0.3,0.2-0.7,0.3-1,0.2c-0.4-0.1-0.7-0.4-0.9-0.7l-1-1.4l2.2-1.5l1.1,1.5c0.1,0.1,0.1,0.2,0.2,0.3
		C36.4,151.6,36.2,152.4,35.6,152.7z M36,148.3l2.1-1.4l0.8,1.2c0.3,0.3,0.4,0.8,0.5,1.2c0,0.4-0.3,0.7-0.6,0.9
		c-0.7,0.5-1.3,0.3-1.9-0.6L36,148.3z"/>
	<path style="&st0;" d="M42.2,160.6l0.6-0.5c0.8-0.6,1.3-1.5,1.5-2.4c0.1-0.9-0.2-1.8-0.8-2.4c-0.4-0.5-0.9-0.9-1.5-1.1
		c-0.6-0.2-1.2-0.2-1.8,0c-0.7,0.2-1.3,0.5-1.8,1l-0.1,0.1c-0.8,0.6-1.3,1.5-1.4,2.5c0,1,0.3,1.9,1,2.7c0.4,0.4,0.8,0.8,1.4,1
		c0.5,0.2,1,0.3,1.5,0.3l0.2-1.5c-0.7,0-1.4-0.3-1.8-0.8c-0.3-0.3-0.5-0.8-0.5-1.2c0-0.4,0.2-0.9,0.5-1.2L42.2,160.6z M41.3,155.7
		c0.4,0,0.7,0.2,0.9,0.5c0.3,0.3,0.4,0.6,0.4,1c-0.1,0.4-0.2,0.7-0.5,0.9l-0.1,0.1l-1.8-2.1C40.5,155.9,40.9,155.7,41.3,155.7z"/>
	<polygon style="&st0;" points="49.1,161.3 44.6,163.9 47.1,159.3 45.7,157.9 42.3,165 43.6,166.3 50.6,162.7 	"/>
	<path style="&st0;" d="M50.2,170c-0.4-0.3-0.6-0.7-0.7-1.1c-0.1-0.4,0-0.9,0.3-1.3l3.7,3l0.5-0.6c0.7-0.7,1-1.7,1-2.7
		c-0.1-0.9-0.5-1.7-1.3-2.3c-0.5-0.4-1.1-0.7-1.7-0.8c-0.6-0.1-1.2,0-1.8,0.3c-0.6,0.3-1.2,0.7-1.6,1.3l-0.1,0.1
		c-0.7,0.7-1,1.7-0.9,2.7c0.1,1,0.6,1.9,1.4,2.5c0.4,0.4,1,0.6,1.5,0.8c0.5,0.1,1,0.1,1.6,0l-0.1-1.5
		C51.4,170.7,50.7,170.5,50.2,170z M51.7,166c0.4-0.1,0.7,0.1,1,0.3c0.3,0.2,0.5,0.5,0.5,0.9c0,0.4-0.1,0.7-0.4,1l-0.1,0.1l-2.1-1.7
		C50.9,166.3,51.3,166.1,51.7,166z"/>
	<path style="&st0;" d="M58.9,171.2c0.2,0.1,0.4,0.3,0.6,0.4l1.1-1.6c-0.1-0.2-0.3-0.3-0.5-0.4c-0.6-0.4-1.3-0.4-1.9-0.1l0.5-0.8
		l-1.5-1.1l-4.2,6.1l1.6,1.1l2.7-4C57.8,170.8,58.4,170.8,58.9,171.2z"/>
	<path style="&st0;" d="M65.2,173.6c-0.3-0.7-0.8-1.3-1.5-1.7c-0.5-0.3-1-0.5-1.6-0.6c-0.5-0.1-1,0-1.4,0.2
		c-0.4,0.2-0.7,0.5-0.9,0.8l1.7,1c0.1-0.2,0.3-0.4,0.6-0.4c0.3,0,0.6,0,0.8,0.2c0.3,0.1,0.5,0.4,0.6,0.7c0,0.3,0,0.6-0.2,0.8L63,175
		l-0.8-0.5c-0.7-0.5-1.6-0.7-2.5-0.7c-0.7,0.1-1.3,0.5-1.7,1.1c-0.3,0.5-0.4,1.2-0.2,1.7c0.2,0.6,0.7,1.1,1.2,1.5
		c0.6,0.4,1.3,0.5,2,0.2c-0.1,0.2-0.1,0.4-0.2,0.7l1.7,1l0.1-0.1c0.1-0.5,0.2-1.1,0.5-1.5l1.6-2.8C65.4,175.1,65.5,174.3,65.2,173.6
		z M61.8,177.1c-0.2,0.1-0.5,0.2-0.7,0.2c-0.3,0-0.6-0.1-0.8-0.2c-0.2-0.1-0.4-0.3-0.5-0.6c-0.1-0.2,0-0.5,0.1-0.6l0.1-0.1
		c0.4-0.6,1-0.6,1.9-0.1l0.6,0.4L61.8,177.1z"/>
	<path style="&st0;" d="M71.7,176.2l-0.4,0.6c-0.2-0.7-0.7-1.3-1.4-1.6c-0.8-0.4-1.7-0.4-2.4,0c-0.9,0.5-1.5,1.3-1.9,2.2l0,0.1
		c-0.5,0.9-0.6,1.9-0.4,2.9c0.2,0.8,0.8,1.5,1.5,1.8c0.6,0.3,1.3,0.3,2,0l-0.2,0.4c-0.2,0.4-0.5,0.7-0.9,0.9
		c-0.4,0.1-0.9,0.1-1.3-0.1c-0.6-0.3-1.1-0.8-1.3-1.5l-1.3,0.7c0.1,0.5,0.4,0.9,0.7,1.3c0.4,0.4,0.8,0.7,1.3,1
		c0.6,0.3,1.2,0.4,1.9,0.4c0.6,0,1.1-0.2,1.6-0.5c0.5-0.3,0.9-0.8,1.1-1.4l3-6.5L71.7,176.2z M69.4,180.9c-0.4,0.3-1,0.3-1.5,0.1
		c-0.4-0.2-0.7-0.5-0.8-1c-0.1-0.6,0-1.1,0.3-1.6v0c0.2-0.6,0.6-1.1,1.1-1.4c0.4-0.2,0.9-0.3,1.3-0.1c0.5,0.2,0.8,0.6,0.9,1.2
		L69.4,180.9z"/>
	<path style="&st0;" d="M77.7,178.3c-0.6-0.2-1.2-0.3-1.9-0.1c-0.6,0.1-1.2,0.4-1.6,0.9c-0.5,0.5-0.8,1.1-1.1,1.8l-0.1,0.2
		c-0.4,0.9-0.3,2,0.1,2.9c0.5,0.9,1.2,1.5,2.2,1.8c0.5,0.2,1.1,0.3,1.7,0.2c0.5,0,1-0.2,1.5-0.5l-0.6-1.3c-0.6,0.4-1.3,0.5-2,0.2
		c-0.4-0.1-0.8-0.4-1-0.8c-0.2-0.4-0.3-0.9-0.2-1.3l4.5,1.5l0.3-0.8c0.4-0.9,0.4-1.9,0.1-2.9C79.3,179.2,78.6,178.6,77.7,178.3z
		 M78,181.6l-0.1,0.1l-2.6-0.9c0.2-0.4,0.5-0.7,0.8-0.9c0.3-0.2,0.7-0.2,1-0.1c0.4,0.1,0.6,0.3,0.8,0.7
		C78.2,180.8,78.2,181.2,78,181.6z"/>
	<path style="&st0;" d="M84.6,180.3c-0.7-0.2-1.5-0.2-2.2,0.1c-0.6,0.3-1,0.8-1.2,1.4c-0.3,1.1,0.4,2,2,2.8c0.4,0.2,0.7,0.4,1,0.6
		c0.2,0.2,0.3,0.4,0.2,0.6c-0.1,0.2-0.2,0.4-0.4,0.5c-0.3,0.1-0.6,0.1-0.9,0c-0.3-0.1-0.7-0.2-0.9-0.5c-0.2-0.2-0.3-0.6-0.2-0.9
		l-1.8-0.4c-0.1,0.4-0.1,0.9,0.1,1.3c0.2,0.5,0.5,0.9,0.9,1.2c0.5,0.3,1,0.6,1.5,0.7c0.8,0.2,1.6,0.2,2.3-0.1
		c0.6-0.2,1.1-0.7,1.2-1.4c0.2-0.9-0.2-1.9-1.1-2.3c-0.4-0.2-0.7-0.4-1.1-0.6c-0.3-0.1-0.7-0.3-0.9-0.6c-0.2-0.2-0.2-0.4-0.2-0.6
		c0-0.2,0.2-0.4,0.4-0.5c0.3-0.1,0.5-0.1,0.8,0c0.3,0,0.6,0.2,0.8,0.5c0.1,0.2,0.2,0.5,0.1,0.7l1.9,0.5c0.2-0.7,0-1.4-0.4-1.9
		C86.1,180.9,85.3,180.5,84.6,180.3z"/>
	
		<rect x="88.1" y="183.5" transform="matrix(0.1239 -0.9923 0.9923 0.1239 -101.4866 254.0226)" style="&st0;" width="10" height="2.1"/>
	<path style="&st0;" d="M100.1,182.5c-0.8-0.1-1.6,0.3-2.2,0.9l0-0.9l-1.9-0.1l-0.4,7.4l2,0.1l0.3-5.2c0.3-0.4,0.8-0.7,1.3-0.6
		c0.3,0,0.7,0.1,0.9,0.3c0.2,0.3,0.3,0.6,0.2,0.9l-0.2,4.7l2,0.1l0.2-4.8c0.1-0.7-0.1-1.5-0.5-2.1
		C101.4,182.8,100.8,182.5,100.1,182.5z"/>
	<path style="&st0;" d="M108,179.4l0.2,3.8c-0.5-0.5-1.1-0.8-1.8-0.7c-0.8,0-1.6,0.4-2.1,1.1c-0.5,0.8-0.8,1.8-0.7,2.8
		c0,1,0.3,2,0.9,2.8c0.5,0.6,1.3,1,2.1,0.9c0.7,0,1.4-0.4,1.9-1l0.1,0.8l1.8-0.1l-0.5-10.5L108,179.4z M107.1,188.6
		c-0.4,0-0.8-0.2-1.1-0.5c-0.3-0.5-0.4-1-0.4-1.6c-0.1-1.5,0.4-2.3,1.3-2.4c0.5-0.1,1.1,0.2,1.3,0.7l0.1,2.9
		C108.2,188.3,107.7,188.6,107.1,188.6z"/>
	<path style="&st0;" d="M115.9,181.7l0.7,5.2c-0.2,0.5-0.7,0.9-1.3,0.9c-0.7,0.1-1.1-0.2-1.2-1l-0.7-4.8l-2,0.3l0.7,4.8
		c0.1,0.7,0.4,1.4,0.9,1.9c0.5,0.4,1.2,0.6,1.9,0.4c0.8-0.1,1.5-0.5,1.9-1.2l0.2,0.7l1.8-0.3l-1-7.4L115.9,181.7z"/>
	<path style="&st0;" d="M124.3,183.3c-0.4,0-0.9-0.1-1.3,0c-0.4,0-0.7,0-1.1-0.1c-0.2-0.1-0.4-0.2-0.4-0.4c-0.1-0.2,0-0.4,0.1-0.6
		c0.2-0.2,0.4-0.4,0.7-0.4c0.3-0.1,0.6-0.1,0.9,0.1c0.2,0.1,0.4,0.4,0.4,0.6l1.9-0.5c-0.1-0.7-0.6-1.2-1.2-1.5
		c-0.7-0.3-1.6-0.3-2.4-0.1c-0.8,0.1-1.4,0.5-1.9,1.1c-0.4,0.5-0.6,1.2-0.4,1.8c0.3,1.1,1.3,1.6,3.1,1.6c0.4,0,0.8,0,1.2,0.1
		c0.2,0.1,0.4,0.2,0.5,0.5c0.1,0.2,0,0.5-0.2,0.6c-0.2,0.2-0.5,0.4-0.8,0.4c-0.3,0.1-0.7,0.1-1,0c-0.3-0.1-0.5-0.4-0.6-0.7l-1.8,0.4
		c0.1,0.4,0.3,0.8,0.7,1.1c0.4,0.3,0.8,0.5,1.3,0.6c0.6,0.1,1.1,0.1,1.7-0.1c0.8-0.2,1.5-0.6,2-1.1c0.5-0.5,0.6-1.2,0.5-1.8
		C126,184,125.2,183.3,124.3,183.3z"/>
	<path style="&st0;" d="M130.9,184.1c-0.2,0.1-0.4,0.1-0.6,0c-0.2-0.1-0.3-0.3-0.3-0.5l-1.1-3.5l1.2-0.4l-0.4-1.4l-1.2,0.4l-0.6-1.7
		l-1.9,0.6l0.6,1.7l-1,0.3l0.4,1.4l1-0.3l1.2,3.8c0,0.2,0.1,0.3,0.1,0.5c0.4,0.9,1.6,1.3,2.5,0.9c0.4-0.1,0.8-0.3,1.1-0.5l-0.5-1.4
		C131.3,183.9,131.1,184,130.9,184.1z"/>
	<path style="&st0;" d="M134.5,178.3c0.2-0.1,0.5-0.2,0.7-0.2l-0.7-1.8c-0.2,0-0.4,0.1-0.6,0.1c-0.7,0.3-1.1,0.9-1.2,1.6l-0.4-0.8
		l-1.7,0.7l2.7,6.9l1.8-0.7l-1.8-4.5C133.4,179,133.9,178.5,134.5,178.3z"/>
	<path style="&st0;" d="M135.9,172.8c-0.3-0.1-0.6-0.1-0.9,0.1c-0.3,0.1-0.5,0.3-0.6,0.6c-0.1,0.3-0.1,0.5,0,0.8
		c0.1,0.3,0.3,0.5,0.6,0.6c0.3,0.1,0.6,0.1,0.9-0.1c0.3-0.1,0.5-0.3,0.6-0.6c0.1-0.3,0.1-0.5,0-0.8
		C136.4,173.1,136.1,172.9,135.9,172.8z"/>
	
		<rect x="136.8" y="175.2" transform="matrix(0.9096 -0.4155 0.4155 0.9096 -61.8944 73.4245)" style="&st0;" width="2" height="7.4"/>
	<path style="&st0;" d="M144.5,178.1c-0.4,0.2-0.8,0.3-1.3,0.2c-0.4-0.1-0.8-0.4-1.1-0.7l4.2-2.3l-0.4-0.7c-0.4-0.9-1.2-1.6-2.1-2
		c-0.9-0.3-1.8-0.2-2.6,0.3c-0.6,0.3-1,0.7-1.4,1.3c-0.3,0.5-0.5,1.2-0.4,1.8c0,0.7,0.2,1.4,0.6,2l0.1,0.2c0.4,0.9,1.2,1.6,2.2,1.9
		c1,0.3,2,0.1,2.8-0.4c0.5-0.3,1-0.7,1.3-1.1c0.3-0.4,0.5-0.9,0.6-1.4l-1.4-0.5C145.6,177.2,145.2,177.8,144.5,178.1z M141.4,175.1
		c0.1-0.4,0.3-0.6,0.6-0.8c0.3-0.2,0.7-0.2,1-0.1c0.3,0.1,0.6,0.4,0.8,0.7l0.1,0.1l-2.4,1.3C141.4,175.9,141.4,175.5,141.4,175.1z"
		/>
	<path style="&st0;" d="M150.6,171.2c-0.4,0.1-0.8,0.2-1.2,0.4c-0.3,0.2-0.7,0.3-1.1,0.3c-0.2,0-0.4-0.1-0.6-0.3
		c-0.1-0.2-0.2-0.4-0.1-0.6c0.1-0.3,0.3-0.5,0.5-0.6c0.2-0.2,0.6-0.3,0.9-0.2c0.3,0.1,0.5,0.2,0.6,0.4l1.6-1.1c-0.4-0.6-1-0.9-1.7-1
		c-0.8,0-1.6,0.2-2.2,0.7c-0.7,0.4-1.2,1-1.4,1.7c-0.2,0.6-0.1,1.3,0.2,1.8c0.6,0.9,1.8,1.1,3.4,0.4c0.4-0.2,0.8-0.3,1.2-0.3
		c0.2,0,0.5,0.1,0.6,0.3c0.1,0.2,0.2,0.4,0.1,0.6c-0.1,0.3-0.3,0.5-0.6,0.7c-0.3,0.2-0.6,0.3-1,0.3c-0.3,0-0.6-0.2-0.8-0.5l-1.6,1
		c0.3,0.4,0.6,0.7,1,0.8c0.5,0.2,1,0.2,1.5,0.1c0.6-0.1,1.1-0.3,1.6-0.6c0.7-0.4,1.2-1,1.5-1.8c0.3-0.6,0.2-1.3-0.2-1.9
		C152.5,171.2,151.5,170.9,150.6,171.2z"/>
	<path style="&st0;" d="M161.1,161.5l-1.3,1.1c0.4,0.4,0.7,1,0.9,1.6l-2.6-0.3l0.2-0.9c0.2-0.8,0-1.7-0.5-2.4
		c-0.4-0.5-1-0.8-1.6-0.8c-0.7,0-1.3,0.3-1.8,0.7c-0.6,0.5-0.9,1.1-1,1.9c0,0.7,0.2,1.4,0.7,1.9c0.3,0.3,0.6,0.5,0.9,0.6
		c0.4,0.2,0.8,0.3,1.3,0.4c-0.2,0.6-0.2,1.3-0.2,1.9c0.1,0.5,0.3,0.9,0.6,1.2c0.5,0.6,1.3,0.9,2,0.9c0.9,0,1.7-0.4,2.3-1
		c0.7-0.6,1.2-1.4,1.4-2.2l0.8,0.1l1.7-1.5l-2.3-0.3C162.4,163.3,161.9,162.3,161.1,161.5z M156.9,163.1l-0.2,0.6
		c-0.5,0-0.9-0.2-1.3-0.6c-0.2-0.2-0.3-0.4-0.3-0.7c0-0.3,0.1-0.5,0.3-0.7c0.2-0.2,0.4-0.3,0.7-0.2c0.2,0,0.4,0.1,0.6,0.3
		c0.1,0.2,0.2,0.3,0.3,0.5C157,162.6,156.9,162.8,156.9,163.1z M160,167.1L160,167.1c-0.3,0.3-0.6,0.4-1,0.4c-0.4,0-0.7-0.2-0.9-0.5
		c-0.3-0.4-0.5-0.8-0.4-1.3l0-0.2l3,0.4C160.6,166.4,160.4,166.8,160,167.1z"/>
	<polygon style="&st0;" points="166.6,149.9 165.3,148.8 160.2,155.1 161.5,156.2 163.4,153.9 169.8,159.1 171.1,157.5 164.7,152.3 
			"/>
	<path style="&st0;" d="M171,148.2c0.1-0.2,0.3-0.4,0.5-0.6l-1.6-1.1c-0.2,0.1-0.3,0.3-0.4,0.5c-0.4,0.6-0.4,1.3-0.1,1.9l-0.8-0.5
		l-1.1,1.5l6.1,4.2l1.1-1.6l-4-2.8C170.5,149.3,170.6,148.7,171,148.2z"/>
	<path style="&st0;" d="M178.3,143.8l-2.8-1.6c-0.6-0.4-1.4-0.5-2.1-0.3c-0.7,0.3-1.3,0.8-1.7,1.5c-0.3,0.5-0.5,1-0.6,1.6
		c-0.1,0.5,0,1,0.2,1.4c0.2,0.4,0.5,0.7,0.8,1l1-1.7c-0.2-0.1-0.4-0.3-0.4-0.6c0-0.3,0-0.6,0.2-0.8c0.1-0.3,0.4-0.5,0.7-0.6
		c0.3,0,0.6,0,0.8,0.2l0.4,0.2l-0.5,0.8c-0.5,0.7-0.8,1.6-0.7,2.5c0.1,0.7,0.5,1.3,1.1,1.7c0.5,0.3,1.2,0.4,1.7,0.2
		c0.6-0.2,1.1-0.7,1.5-1.2c0.4-0.6,0.5-1.3,0.3-2c0.2,0.1,0.4,0.1,0.7,0.2l1-1.7l-0.1-0.1C179.3,144.3,178.7,144.1,178.3,143.8z
		 M176.9,146.8c-0.1,0.2-0.3,0.4-0.6,0.5c-0.2,0.1-0.5,0-0.7-0.1l-0.1-0.1c-0.6-0.4-0.6-1-0.1-1.9l0.4-0.6l1.1,0.6
		c0.1,0.2,0.2,0.5,0.2,0.7C177.1,146.3,177,146.6,176.9,146.8z"/>
	<path style="&st0;" d="M173,134.3l3.4,1.6c-0.7,0.2-1.2,0.7-1.5,1.3c-0.4,0.7-0.4,1.6,0,2.4c0.5,0.8,1.3,1.5,2.2,1.9
		c0.9,0.5,1.9,0.7,2.9,0.5c0.8-0.2,1.5-0.7,1.8-1.5c0.3-0.7,0.3-1.5,0-2.1l0.8,0.2l0.8-1.6l-9.6-4.4L173,134.3z M176.7,137.4
		c0.2-0.5,0.7-0.8,1.2-0.8l2.7,1.2c0.4,0.4,0.4,1,0.2,1.5c-0.2,0.4-0.5,0.7-0.9,0.7c-0.6,0-1.1-0.1-1.6-0.3v0
		C176.8,139.1,176.3,138.3,176.7,137.4z"/>
	<path style="&st0;" d="M175.4,131.8c0.3,0.1,0.5,0.1,0.8,0c0.3-0.1,0.5-0.4,0.6-0.7c0.1-0.3,0.1-0.6,0-0.9
		c-0.1-0.3-0.3-0.5-0.6-0.5c-0.3-0.1-0.5-0.1-0.8,0c-0.3,0.1-0.5,0.4-0.6,0.7c-0.1,0.3-0.1,0.6,0,0.9
		C174.9,131.5,175.1,131.7,175.4,131.8z"/>
	<polygon style="&st0;" points="177.2,132.4 184.2,135 184.9,133.1 177.9,130.5 	"/>
	<path style="&st0;" d="M180.7,123.7c-0.6,0.3-1,0.8-1.2,1.5c-0.3,0.8-0.1,1.7,0.3,2.3l-0.8-0.2l-0.5,1.8l7.1,2.1l0.6-1.9l-5-1.5
		c-0.4-0.4-0.5-0.9-0.3-1.4c0.1-0.3,0.3-0.6,0.5-0.8c0.3-0.1,0.6-0.1,1,0l4.6,1.4l0.6-1.9l-4.6-1.4
		C182.1,123.5,181.4,123.5,180.7,123.7z"/>
	<path style="&st0;" d="M190.5,117.4c-0.4-0.4-1-0.7-1.6-0.8l-7-1.4l-0.3,1.8l0.7,0.2c-0.6,0.4-1.1,1-1.2,1.7
		c-0.2,0.8,0,1.7,0.6,2.3c0.7,0.7,1.6,1.2,2.5,1.3l0.1,0c1,0.2,2,0.1,2.9-0.3c0.8-0.4,1.3-1.1,1.4-1.9c0.2-0.7,0-1.4-0.4-1.9
		l0.4,0.1c0.4,0.1,0.8,0.3,1.1,0.7c0.2,0.4,0.3,0.9,0.2,1.3c-0.1,0.7-0.5,1.3-1.2,1.6l1,1.1c0.4-0.2,0.8-0.6,1-1
		c0.3-0.5,0.5-1,0.6-1.5c0.1-0.6,0.1-1.3,0-1.9C191.2,118.3,190.9,117.8,190.5,117.4z M187.1,119.6c-0.1,0.4-0.4,0.8-0.8,1
		c-0.5,0.2-1.1,0.2-1.6,0.1c-0.6-0.1-1.2-0.3-1.6-0.7c-0.3-0.3-0.5-0.8-0.4-1.2c0.1-0.5,0.4-1,0.9-1.1l3.1,0.6
		C187.1,118.6,187.2,119.1,187.1,119.6z"/>
	<path style="&st0;" d="M131.1,72.7c-0.6-0.7-1.2-1.9-2.4-1.5c-1,0.4-0.8,1.6-0.9,2.5c-0.1,2.4-1.4,3.7-3.8,4.3
		c-0.6,0.1-1.1,0.3-1.7,0.4c-4.2,1.2-5.1,3.5-3,7.3c6.7,12.2,7.1,24.6,0.8,36.9c-4,7.9-11.2,11.7-20.4,11.6c-9.1-0.1-16-4-20-11.7
		C74.3,112,74.2,101,78.4,90c0.2-0.5,0.4-1,0.7-1.4c0.9-0.4,1.7-1,2.4-1.6c2.7-2.3,2.9-4.1,3.9-6.6v0c2-5.3,5.9-8.2,12.1-8.2
		c3.6,0,6.9-1.7,9.1-4.5c1-1.2,1.6-2.7,2-4.2c0,0,0,0,0,0c0-0.1,0-0.2,0.1-0.4c0,0,0,0,0-0.1c0-0.1,0-0.2,0-0.4v-0.1
		c0-0.1,0-0.2,0-0.3v0c-0.1-0.7-0.7-1.2-1.9-1.3c-5.2-0.7-10.6-0.7-15.8,0.1C77.8,63.4,67.6,69.8,62,81.8c-5.1,11.1-6.8,22.7-4,34.7
		c1.7,7.3,4.2,14.2,9.4,20c8.4,9.4,19.6,12.9,32.2,13.2c3,0.1,6-0.2,8.9-0.8c13-2.6,23.2-8.8,29-20.5c5.3-10.4,6.8-22.3,4.4-33.7
		C140.2,86.5,137,79,131.1,72.7z"/>
	<path style="&st0;" d="M114.7,73.6c1.2-2.9,3.7-3.5,6.6-4.1c8.9-1.6,13-9.6,14.7-16.3c0.3-1.1-0.3-1.8-1.6-1.7
		c-5.7,0.3-11.1,1.6-15.5,5.2c-3.1,2.5-4.1,5.9-3.7,9.7c4-4.4,8.1-8.5,14.2-10.1C122.6,60.7,116.9,65.8,114.7,73.6z"/>
</g>
</svg>
